<svg class="zone-card__svg-icon" width="227" height="160" viewBox="0 0 227 160"
    fill="none" xmlns="http://www.w3.org/2000/svg">
    <path
        d="M225.823 136.826C216.948 129.923 207.087 124.993 196.733 121.787C205.363 114.639 213.005 106.009 218.92 95.9012C219.414 95.1617 219.414 94.4223 219.166 93.6828C218.92 92.9434 218.181 92.4498 217.439 92.2039C206.592 89.2461 195.498 88.5067 184.896 89.492C189.581 80.3708 192.786 70.2626 194.265 59.6609C194.265 58.9215 194.019 58.182 193.526 57.6884C193.032 57.1949 192.293 56.949 191.553 56.949C181.199 58.4279 171.337 61.3857 162.463 65.8241C163.203 55.4698 162.463 45.116 159.506 34.7617C159.26 34.0222 158.766 33.5287 158.027 33.0351C157.287 32.7892 156.548 32.7892 155.808 33.2811C149.399 36.9783 143.728 41.4166 138.552 46.3472C134.607 30.0757 126.965 14.5456 115.132 0.73903C114.146 -0.246343 112.42 -0.246343 111.434 0.73903C99.6013 14.5443 91.9593 30.0766 88.0144 46.3472C82.8364 41.417 77.1666 36.9786 70.7577 33.2811C70.0183 32.7875 69.2788 32.7875 68.5393 33.0351C67.7999 33.2811 67.3063 34.0205 67.0604 34.7617C64.3485 45.116 63.3632 55.7177 64.1026 65.8241C55.2275 61.3874 45.3667 58.4277 35.0129 56.949C34.2734 56.949 33.534 57.1949 33.0404 57.6884C32.5469 58.182 32.301 58.9215 32.301 59.6609C33.7799 70.2608 36.9855 80.369 41.6695 89.492C30.8218 88.5066 19.9744 89.2461 9.12665 92.2039C8.38719 92.4498 7.89365 92.9434 7.4001 93.6828C7.39666 94.4223 7.39666 95.4094 7.64429 95.9012C13.5615 106.009 21.2039 114.637 29.8312 121.787C19.723 124.993 9.86263 129.923 0.987092 136.826C0.247632 137.319 0 138.059 0 138.798C0 139.538 0.245908 140.277 0.985372 140.771C17.7486 153.591 37.9649 160 57.9339 160C77.4089 160 96.8857 153.837 113.403 141.756C129.921 153.837 149.398 160 168.873 160C189.089 160 209.058 153.591 225.821 140.771C226.315 140.277 226.807 139.538 226.807 138.798C226.81 138.059 226.562 137.319 225.823 136.826H225.823ZM213.003 96.3947C207.086 105.763 199.443 113.899 190.816 120.308C181.695 118.09 172.326 117.35 162.958 117.842C170.354 111.185 176.763 103.543 181.941 94.9157C192.295 93.6827 202.649 93.9303 213.003 96.3946L213.003 96.3947ZM155.561 39.1996C157.78 49.06 158.273 58.9225 157.288 68.7828C151.371 72.2342 145.946 76.1792 141.016 80.6159C142.002 71.0012 141.756 61.3865 140.031 52.0179C144.466 47.0877 149.644 42.8967 155.561 39.1996H155.561ZM139.783 88.5057C144.713 83.3277 150.138 78.6454 156.301 74.9461C157.286 74.4526 158.273 73.7131 159.259 73.2196C160.244 72.726 160.985 72.2342 161.971 71.7406C170.352 67.304 179.475 63.8508 189.09 62.372C187.363 72.4802 183.912 81.8471 179.229 90.4765C178.736 91.4619 178.244 92.2031 177.751 93.1884C177.257 94.1738 176.518 95.1609 176.024 96.1463C170.354 105.021 162.958 112.664 154.576 118.827C152.85 120.06 151.371 121.045 149.646 122.278C146.441 124.251 142.989 126.223 139.292 127.948C136.58 129.181 133.868 130.414 131.156 131.4C129.923 131.893 128.938 132.139 127.705 132.385C125.487 133.124 123.514 133.618 121.296 134.111C121.05 134.111 120.802 134.111 120.556 134.357C120.31 134.357 120.063 134.357 119.817 134.603C121.05 133.124 122.035 131.645 123.022 130.167L123.268 129.921C123.762 129.181 124.253 128.442 124.747 127.455C126.719 124.249 128.692 121.045 130.171 117.84C131.156 115.868 132.143 114.143 132.883 112.17C135.839 104.036 138.303 96.394 139.784 88.5059L139.783 88.5057ZM71.2478 39.1996C77.165 42.8969 82.3412 47.0895 87.0257 52.0197C85.2992 61.6343 85.0533 71.249 86.0404 80.6176C81.1102 76.181 75.6861 71.9882 69.7689 68.7846C68.5359 58.9207 69.0295 49.06 71.2478 39.1996H71.2478ZM37.9671 62.3722C47.5818 64.0987 56.7029 67.3023 65.0863 71.7408C66.0717 72.2343 66.8128 72.7262 67.7982 73.2197C68.7836 73.7132 69.7707 74.4527 70.7561 74.9462C76.9193 78.8911 82.343 83.3278 87.2736 88.5059C88.7525 96.3957 90.9708 104.038 94.1764 111.432C94.9159 113.405 95.903 115.377 96.8884 117.102C98.6149 120.308 100.34 123.511 102.312 126.717C102.806 127.456 103.297 128.196 103.791 129.183L104.037 129.429C105.022 130.908 106.255 132.387 107.242 133.865C106.996 133.865 106.749 133.865 106.503 133.619C106.257 133.619 106.009 133.619 105.763 133.374C103.545 132.88 101.573 132.388 99.354 131.647C98.121 131.401 97.1356 130.908 95.9027 130.662C93.1908 129.676 90.479 128.443 87.7672 127.21C84.3158 125.484 80.8643 123.759 77.4129 121.541C75.6863 120.555 73.9616 119.322 72.4827 118.089C64.1011 111.926 56.7048 104.036 51.035 95.4084C50.2956 94.423 49.802 93.4359 49.3085 92.4505C48.8149 91.4651 48.3231 90.724 47.8296 89.7386C43.1433 81.8487 39.6923 72.2341 37.9675 62.372L37.9671 62.3722ZM13.8075 96.3938C24.1618 93.9278 34.7635 93.6819 44.8699 94.9149C50.0479 103.544 56.4569 111.186 63.8532 117.841C54.4846 117.348 45.1173 118.087 35.9948 120.307C27.1197 113.898 19.7234 105.762 13.808 96.3939L13.8075 96.3938ZM105.517 141.262C75.194 160.492 35.9953 159.506 6.65814 138.796C15.2876 132.633 24.9018 128.196 35.0083 125.73C35.9936 125.484 36.9807 125.237 37.9661 124.991C39.1991 124.745 40.4321 124.497 41.4174 124.251C51.0321 122.525 60.8925 122.279 70.755 123.512C79.1366 129.675 88.7513 134.36 98.8595 137.317C100.832 137.811 102.804 138.55 105.023 138.796C106.008 139.042 106.995 139.29 108.228 139.536C107.243 140.029 106.257 140.523 105.516 141.262L105.517 141.262ZM116.365 130.167C116.119 130.413 115.871 130.661 115.871 130.907C115.625 131.153 115.378 131.646 115.132 131.892C114.886 132.138 114.638 132.631 114.392 132.877C114.392 132.877 114.392 133.123 114.146 133.123C114.146 133.369 113.9 133.369 113.9 133.617C113.9 133.863 113.654 133.863 113.654 134.11C113.654 133.864 113.409 133.864 113.409 133.617C113.409 133.371 113.163 133.371 113.163 133.123C113.163 133.123 113.163 132.877 112.917 132.877C112.671 132.631 112.423 132.138 112.177 131.892C111.931 131.646 111.684 131.153 111.438 130.907C111.192 130.661 110.944 130.413 110.944 130.167C110.451 129.428 109.959 128.688 109.465 127.949C108.48 126.716 107.739 125.483 106.999 124.252C101.33 115.622 97.3846 106.255 94.6728 96.8867C94.1792 94.9142 93.6874 92.9418 93.1939 90.9695C92.948 89.4906 92.4544 87.7641 92.2085 86.285C90.4819 76.4246 90.4819 66.3164 91.715 56.4539C91.9609 55.4685 91.9609 54.2355 92.2085 53.2485C92.4544 52.2631 92.702 51.276 92.702 50.2906C95.9075 34.7588 102.81 19.4743 113.658 6.16169C124.506 19.4735 131.408 34.7597 134.614 50.2906C134.86 51.276 135.108 52.2631 135.108 53.2485C135.353 54.2339 135.353 55.4669 135.601 56.4539C137.08 66.3142 136.834 76.4224 135.108 86.285C134.862 87.7639 134.614 89.4904 134.122 90.9695C133.629 92.942 133.137 94.9144 132.643 96.8867C129.931 106.501 125.74 115.623 120.317 124.252C119.577 125.485 118.59 126.718 117.851 127.949C117.352 128.936 116.858 129.428 116.365 130.167H116.365ZM121.297 141.262C120.311 140.769 119.57 140.029 118.585 139.536C119.57 139.29 120.557 139.042 121.79 138.796C123.763 138.303 125.981 137.811 127.953 137.317C138.062 134.36 147.676 129.675 156.058 123.512C165.672 122.033 175.781 122.279 185.395 124.252C186.628 124.498 187.861 124.745 188.847 124.991C189.832 125.237 190.819 125.485 191.805 125.731C201.665 128.442 211.28 132.633 220.155 138.797C190.817 159.505 151.619 160.244 121.296 141.263L121.297 141.262Z"
        fill="url(#paint0_linear_732_831)" />
    <defs>
        <linearGradient id="paint0_linear_732_831" x1="-96.1813" y1="274.346" x2="349.917"
            y2="-20.1522" gradientUnits="userSpaceOnUse">
            <stop stop-color="#40F102" />
            <stop offset="1" stop-color="#02B9F1" />
        </linearGradient>
    </defs>
</svg>