<svg class="zone-card__svg-icon" width="252" height="160" viewBox="0 0 252 160" fill="none"
    xmlns="http://www.w3.org/2000/svg">
    <path
        d="M153.705 43.7613C153.427 43.1039 152.782 42.6771 152.069 42.6771H103.217L110.135 35.4213V35.4201C110.321 35.2514 110.463 35.0368 110.543 34.7986C114.377 28.2488 114.753 20.2365 111.548 13.3577C108.344 6.47913 101.968 1.61144 94.4876 0.331007C87.0085 -0.947937 79.377 1.52561 74.0689 6.94913C73.9758 7.03969 73.8915 7.14141 73.8208 7.25058L8.02062 72.0726H8.01938C3.56485 76.026 0.749926 81.5041 0.129715 87.4277C-0.490527 93.3523 1.12831 99.2943 4.66872 104.085C8.20897 108.875 13.4142 112.167 19.2594 113.313L24.3094 114.434L85.1999 115.394H85.2012C85.685 115.392 86.1477 115.193 86.4814 114.843L153.314 45.6637H153.312C153.809 45.1626 153.962 44.417 153.704 43.7608L153.705 43.7613ZM76.7549 9.40362C76.843 9.31182 76.9199 9.2101 76.9856 9.10094C81.5831 4.73183 88.0138 2.86231 94.2359 4.08558C99.5241 5.10155 104.146 8.27971 106.987 12.8533C110.439 18.3809 110.933 25.2607 108.303 31.224C107.814 32.4124 107.116 33.5028 106.24 34.4432L97.8284 43.3351L48.1226 95.229C49.8766 87.0913 47.3411 78.6224 41.4054 72.7871C35.4684 66.9517 26.9573 64.5627 18.8507 66.4554L76.7549 9.40362ZM3.55537 90.1073C3.56034 84.5946 5.75355 79.3087 9.65491 75.4134C13.5562 71.5181 18.8434 69.3326 24.3561 69.3348C29.8688 69.3385 35.1547 71.5305 39.0509 75.4305C42.9475 79.3293 45.1356 84.6178 45.1343 90.1305C45.1318 95.6431 42.9411 100.929 39.042 104.827C35.1445 108.724 29.8573 110.914 24.3447 110.914C18.8295 110.909 13.541 108.714 9.64348 104.813C5.74469 100.912 3.55506 95.6222 3.55506 90.1067L3.55537 90.1073ZM84.4908 111.838L36.6333 111.092C38.922 109.736 40.9764 108.019 42.7154 106.006H42.8047L99.8717 46.236H147.888L84.4908 111.838Z"
        fill="url(#paint0_linear_734_896)" />
    <path
        d="M42.8419 90.1069C42.8468 85.1945 40.8993 80.4817 37.4283 77.006C33.9573 73.5314 29.2471 71.5774 24.3349 71.5762C19.4237 71.5737 14.7123 73.525 11.2391 76.9983C7.76582 80.4717 5.81436 85.1821 5.8169 90.0942C5.81814 95.0067 7.77191 99.7169 11.248 103.188C14.7225 106.659 19.4352 108.606 24.3477 108.601C29.2503 108.592 33.949 106.64 37.415 103.174C40.8809 99.7067 42.8333 95.0089 42.8422 90.1066L42.8419 90.1069ZM9.38922 90.1069C9.38426 86.1386 10.9572 82.3316 13.7596 79.5243C16.5619 76.7158 20.3666 75.1355 24.3337 75.1329C28.302 75.1292 32.1077 76.7034 34.9151 79.5068C37.7224 82.3102 39.3004 86.1151 39.3013 90.0834C39.3038 94.0505 37.7284 97.8565 34.9236 100.662C32.1189 103.468 28.3131 105.045 24.3457 105.045C20.3825 105.045 16.5802 103.472 13.7768 100.671C10.972 97.8701 9.39399 94.0705 9.38922 90.1069Z"
        fill="url(#paint1_linear_734_896)" />
    <path
        d="M36.9923 90.1064C36.9923 86.7472 35.6575 83.5254 33.2806 81.15C30.905 78.7757 27.6834 77.4421 24.3242 77.4434C20.9649 77.4458 17.7432 78.7818 15.3703 81.1586C12.996 83.5354 11.6649 86.7583 11.6675 90.1175C11.6712 93.4768 13.0085 96.6972 15.3865 99.0701C17.7646 101.442 20.9887 102.773 24.348 102.768C27.7021 102.763 30.9188 101.427 33.2894 99.0529C35.6601 96.6787 36.9923 93.4609 36.9923 90.1064ZM15.2427 90.1064C15.2427 87.6911 16.2016 85.3753 17.9097 83.6671C19.6167 81.9601 21.9327 81.0012 24.3478 81.0012C26.7629 81.0012 29.078 81.9601 30.7859 83.6671C32.494 85.3752 33.4529 87.6913 33.4529 90.1064C33.4529 92.5204 32.494 94.8366 30.7859 96.5445C29.0777 98.2514 26.7629 99.2115 24.3478 99.2115C21.9327 99.2115 19.6167 98.2514 17.9097 96.5445C16.2016 94.8363 15.2427 92.5202 15.2427 90.1064Z"
        fill="url(#paint2_linear_734_896)" />
    <path
        d="M251.644 88.3678C251.366 87.7103 250.721 87.2836 250.008 87.2836H201.156L208.074 80.0278V80.0265C208.26 79.8578 208.402 79.6432 208.482 79.4051C212.315 72.8552 212.692 64.843 209.487 57.9641C206.283 51.0856 199.907 46.2179 192.427 44.9375C184.947 43.6585 177.316 46.1321 172.008 51.5556C171.915 51.6461 171.83 51.7479 171.76 51.857L105.96 116.679H105.958C101.504 120.632 98.6889 126.111 98.0687 132.034C97.4484 137.959 99.0673 143.901 102.608 148.692C106.148 153.481 111.353 156.773 117.198 157.92L122.248 159.04L183.139 160H183.14C183.624 159.999 184.087 159.799 184.42 159.449L251.253 90.2702H251.251C251.748 89.769 251.901 89.0235 251.643 88.3673L251.644 88.3678ZM174.694 54.0101C174.782 53.9183 174.859 53.8165 174.925 53.7074C179.522 49.3383 185.953 47.4688 192.175 48.692C197.463 49.708 202.085 52.8862 204.926 57.4598C208.378 62.9874 208.872 69.8672 206.242 75.8305C205.753 77.0189 205.055 78.1093 204.179 79.0497L195.767 87.9416L146.062 139.835C147.816 131.698 145.28 123.229 139.344 117.394C133.407 111.558 124.896 109.169 116.79 111.062L174.694 54.0101ZM101.494 134.714C101.499 129.201 103.693 123.915 107.594 120.02C111.495 116.125 116.782 113.939 122.295 113.941C127.808 113.945 133.094 116.137 136.99 120.037C140.886 123.936 143.075 129.224 143.073 134.737C143.071 140.25 140.88 145.536 136.981 149.433C133.083 153.331 127.796 155.52 122.284 155.52C116.768 155.515 111.48 153.321 107.582 149.419C103.684 145.518 101.494 140.229 101.494 134.713L101.494 134.714ZM182.43 156.445L134.572 155.698C136.861 154.342 138.915 152.625 140.654 150.612H140.744L197.811 90.8424H245.827L182.43 156.445Z"
        fill="url(#paint3_linear_734_896)" />
    <path
        d="M140.781 134.713C140.786 129.801 138.838 125.088 135.367 121.612C131.896 118.138 127.186 116.184 122.274 116.183C117.363 116.18 112.651 118.131 109.178 121.605C105.705 125.078 103.753 129.789 103.756 134.701C103.757 139.613 105.711 144.323 109.187 147.794C112.661 151.265 117.374 153.212 122.287 153.208C127.189 153.199 131.888 151.246 135.354 147.78C138.82 144.313 140.772 139.615 140.781 134.713L140.781 134.713ZM107.328 134.713C107.323 130.745 108.896 126.938 111.699 124.131C114.501 121.322 118.306 119.742 122.273 119.739C126.241 119.736 130.047 121.31 132.854 124.113C135.661 126.917 137.239 130.722 137.24 134.69C137.243 138.657 135.667 142.463 132.863 145.269C130.058 148.075 126.252 149.651 122.285 149.651C118.321 149.651 114.519 148.079 111.716 145.278C108.911 142.477 107.333 138.677 107.328 134.713Z"
        fill="url(#paint4_linear_734_896)" />
    <path
        d="M134.931 134.713C134.931 131.354 133.596 128.132 131.22 125.756C128.844 123.382 125.622 122.049 122.263 122.05C118.904 122.052 115.682 123.388 113.309 125.765C110.935 128.142 109.604 131.365 109.606 134.724C109.61 138.083 110.947 141.304 113.325 143.677C115.704 146.048 118.928 147.379 122.287 147.375C125.641 147.37 128.858 146.034 131.228 143.659C133.599 141.285 134.931 138.067 134.931 134.713ZM113.182 134.713C113.182 132.298 114.141 129.982 115.849 128.274C117.556 126.567 119.872 125.608 122.287 125.608C124.702 125.608 127.017 126.567 128.725 128.274C130.433 129.982 131.392 132.298 131.392 134.713C131.392 137.127 130.433 139.443 128.725 141.151C127.017 142.858 124.702 143.818 122.287 143.818C119.872 143.818 117.556 142.858 115.849 141.151C114.141 139.443 113.182 137.127 113.182 134.713Z"
        fill="url(#paint5_linear_734_896)" />
    <defs>
        <linearGradient id="paint0_linear_734_896" x1="-54.9385" y1="161.99" x2="193.384"
            y2="-16.6385" gradientUnits="userSpaceOnUse">
            <stop stop-color="#40F102" />
            <stop offset="1" stop-color="#02B9F1" />
        </linearGradient>
        <linearGradient id="paint1_linear_734_896" x1="-7.40643" y1="123.552" x2="166.679"
            y2="66.0429" gradientUnits="userSpaceOnUse">
            <stop stop-color="#40F102" />
            <stop offset="1" stop-color="#02B9F1" />
        </linearGradient>
        <linearGradient id="paint2_linear_734_896" x1="2.62291" y1="112.994" x2="145.684"
            y2="56.0166" gradientUnits="userSpaceOnUse">
            <stop stop-color="#40F102" />
            <stop offset="1" stop-color="#02B9F1" />
        </linearGradient>
        <linearGradient id="paint3_linear_734_896" x1="43.0004" y1="206.597" x2="291.323"
            y2="27.9679" gradientUnits="userSpaceOnUse">
            <stop stop-color="#40F102" />
            <stop offset="1" stop-color="#02B9F1" />
        </linearGradient>
        <linearGradient id="paint4_linear_734_896" x1="90.5325" y1="168.158" x2="247.998"
            y2="104.118" gradientUnits="userSpaceOnUse">
            <stop stop-color="#40F102" />
            <stop offset="1" stop-color="#02B9F1" />
        </linearGradient>
        <linearGradient id="paint5_linear_734_896" x1="100.562" y1="157.601" x2="244.648"
            y2="100.422" gradientUnits="userSpaceOnUse">
            <stop stop-color="#40F102" />
            <stop offset="1" stop-color="#02B9F1" />
        </linearGradient>
    </defs>
</svg>