<svg class="zone-card__svg-icon" width="214" height="160" viewBox="0 0 214 160" fill="none"
    xmlns="http://www.w3.org/2000/svg">
    <path
        d="M213.121 60.6777C212.735 59.766 211.841 59.1743 210.852 59.1743H143.117L152.709 49.1137V49.112C152.967 48.8781 153.163 48.5805 153.275 48.2503C158.59 39.1685 159.111 28.0591 154.668 18.5212C150.225 8.98369 141.384 2.23436 131.013 0.45896C120.642 -1.31437 110.061 2.11534 102.701 9.63538C102.572 9.76094 102.455 9.90198 102.357 10.0533L11.1211 99.9329H11.1193C4.94287 105.415 1.03982 113.01 0.179858 121.224C-0.680145 129.438 1.56447 137.677 6.47345 144.32C11.3822 150.961 18.5996 155.526 26.7043 157.116L33.7064 158.669L118.135 160H118.136C118.807 159.998 119.449 159.721 119.911 159.236L212.578 63.3154H212.577C213.265 62.6206 213.478 61.5868 213.12 60.6769L213.121 60.6777ZM106.425 13.0387C106.547 12.9114 106.654 12.7703 106.745 12.619C113.12 6.56096 122.036 3.96876 130.664 5.6649C137.996 7.07359 144.405 11.4803 148.344 17.8219C153.13 25.4862 153.815 35.0255 150.169 43.2939C149.491 44.9417 148.522 46.4536 147.308 47.7575L135.645 60.0867L66.7248 132.041C69.1569 120.757 65.6412 109.014 57.411 100.923C49.1791 92.8325 37.3779 89.5199 26.1376 92.1443L106.425 13.0387ZM4.92973 124.939C4.93661 117.295 7.97763 109.966 13.3871 104.565C18.7965 99.164 26.1275 96.1337 33.7712 96.1367C41.4148 96.1419 48.744 99.1812 54.1464 104.589C59.5492 109.995 62.5831 117.327 62.5813 124.971C62.5779 132.615 59.5403 139.944 54.1341 145.348C48.7299 150.752 41.3989 153.788 33.7553 153.788C26.1081 153.781 18.7754 150.739 13.3712 145.329C7.96535 139.92 4.92929 132.586 4.92929 124.938L4.92973 124.939ZM117.151 155.071L50.7942 154.035C53.9676 152.155 56.8161 149.775 59.2273 146.983H59.3512L138.478 64.1089H205.055L117.151 155.071Z"
        fill="url(#paint0_linear_733_842)" />
    <path
        d="M59.4022 124.939C59.4091 118.128 56.7087 111.593 51.896 106.774C47.0832 101.956 40.5523 99.2469 33.7413 99.2451C26.9316 99.2417 20.3989 101.947 15.5831 106.763C10.7672 111.579 8.06142 118.11 8.06494 124.921C8.06666 131.733 10.7757 138.264 15.5954 143.076C20.413 147.889 26.9475 150.589 33.7589 150.582C40.5567 150.57 47.0718 147.863 51.8775 143.057C56.6832 138.25 59.3903 131.736 59.4027 124.939L59.4022 124.939ZM13.0182 124.939C13.0113 119.437 15.1923 114.158 19.078 110.266C22.9635 106.371 28.239 104.18 33.7395 104.177C39.2419 104.172 44.5187 106.354 48.4112 110.241C52.3037 114.128 54.4917 119.404 54.493 124.906C54.4965 130.407 52.312 135.684 48.4231 139.575C44.5342 143.465 39.2573 145.652 33.7563 145.652C28.261 145.652 22.989 143.471 19.1017 139.587C15.2128 135.703 13.0248 130.435 13.0182 124.939Z"
        fill="url(#paint1_linear_733_842)" />
    <path
        d="M51.2921 124.939C51.2921 120.281 49.4413 115.814 46.1455 112.52C42.8516 109.228 38.3848 107.379 33.727 107.381C29.0692 107.384 24.6021 109.237 21.3119 112.532C18.0198 115.828 16.1742 120.297 16.1777 124.954C16.1829 129.612 18.0371 134.077 21.3344 137.368C24.6317 140.656 29.1022 142.502 33.76 142.495C38.4107 142.488 42.8708 140.636 46.1578 137.344C49.4449 134.052 51.2921 129.59 51.2921 124.939ZM21.1349 124.939C21.1349 121.59 22.4645 118.379 24.833 116.01C27.1997 113.644 30.411 112.314 33.7597 112.314C37.1084 112.314 40.3184 113.644 42.6865 116.01C45.055 118.379 46.3845 121.59 46.3845 124.939C46.3845 128.286 45.055 131.498 42.6865 133.866C40.318 136.232 37.1084 137.564 33.7597 137.564C30.411 137.564 27.1997 136.232 24.833 133.866C22.4645 131.497 21.1349 128.286 21.1349 124.939Z"
        fill="url(#paint2_linear_733_842)" />
    <defs>
        <linearGradient id="paint0_linear_733_842" x1="-76.1755" y1="224.609" x2="268.138"
            y2="-23.0703" gradientUnits="userSpaceOnUse">
            <stop stop-color="#40F102" />
            <stop offset="1" stop-color="#02B9F1" />
        </linearGradient>
        <linearGradient id="paint1_linear_733_842" x1="-10.27" y1="171.313" x2="233.063"
            y2="90.3091" gradientUnits="userSpaceOnUse">
            <stop stop-color="#40F102" />
            <stop offset="1" stop-color="#02B9F1" />
        </linearGradient>
        <linearGradient id="paint2_linear_733_842" x1="3.6369" y1="156.675" x2="217.877"
            y2="89.6717" gradientUnits="userSpaceOnUse">
            <stop stop-color="#40F102" />
            <stop offset="1" stop-color="#02B9F1" />
        </linearGradient>
    </defs>
</svg>