<svg width="623" height="623" viewBox="0 0 623 623" fill="none" xmlns="http://www.w3.org/2000/svg">
<path d="M195 427.5L428.5 194" stroke="#DF1F1F" stroke-width="60" stroke-linecap="round"/>
<path d="M195 194L428.5 427.5" stroke="#DF1F1F" stroke-width="60" stroke-linecap="round"/>
<path d="M311.667 0.223633C229.156 0.223633 150.027 32.9996 91.6799 91.3436C33.3359 149.688 0.559937 228.824 0.559937 311.33C0.559937 393.837 33.3359 472.97 91.6799 531.317C150.024 589.661 229.16 622.437 311.667 622.437C394.173 622.437 473.307 589.661 531.653 531.317C589.997 472.973 622.773 393.837 622.773 311.33C622.68 228.846 589.872 149.77 531.549 91.4503C473.227 33.1276 394.149 0.319631 311.669 0.226298L311.667 0.223633ZM311.667 560.224C245.656 560.224 182.349 534 135.68 487.322C89.0026 440.65 62.7786 377.344 62.7786 311.336C62.7786 245.328 89.0026 182.018 135.68 135.349C182.352 88.6716 245.659 62.4476 311.667 62.4476C377.675 62.4476 440.984 88.6716 487.653 135.349C534.331 182.021 560.555 245.328 560.555 311.336C560.477 377.32 534.232 440.586 487.571 487.242C440.915 533.904 377.649 560.149 311.664 560.226L311.667 560.224Z" fill="#DF1F1F"/>
</svg>
