<svg width="686" height="856" viewBox="0 0 686 856" fill="none" xmlns="http://www.w3.org/2000/svg">
<path d="M599.591 552.144C602.892 551.569 605.301 548.703 605.301 545.353V488.002C605.301 483.605 601.241 480.332 596.945 481.264L188.313 569.981C187.045 570.256 186.141 571.378 186.141 572.675V624.226L297.136 604.875L599.591 552.144Z" fill="url(#paint0_linear_1124_858)"/>
<path d="M521.194 680.068L409.509 661.454C348.29 674.995 311.965 680.968 247.135 690.073C245.774 690.265 244.74 691.432 244.74 692.808V718.675L308.855 709.721C308.855 709.721 521.194 690.409 521.194 680.068Z" fill="url(#paint1_linear_1124_858)"/>
<path d="M291.83 795.746C290.887 797.803 292.653 800.058 294.866 799.582C317.465 794.716 404.325 775.511 401.926 768.313L369.523 758.08C339.74 770.588 324.534 775.435 297.744 783.975L297.136 784.169L291.83 795.746Z" fill="url(#paint2_linear_1124_858)"/>
<path d="M297.136 604.875L186.141 624.226C186.141 635.946 409.509 661.454 409.509 661.454L521.194 680.068V643.808C521.194 642.455 520.188 641.298 518.853 641.082C428.823 626.509 379.979 620.91 297.136 604.875Z" fill="#36CC02"/>
<path d="M308.855 709.721L244.74 718.675C291.471 736.725 318.304 746.008 369.523 758.08L401.926 768.313V748.863C401.926 747.708 401.193 746.671 400.11 746.271C362.301 732.307 341.5 724.213 308.855 709.721Z" fill="#36CC02"/>
<rect width="210.301" height="403.114" rx="13.1385" transform="matrix(0.924817 -0.380411 0.327363 0.944899 195 296.097)" fill="url(#paint3_linear_1124_858)"/>
<rect width="198.671" height="402.564" rx="13.1385" transform="matrix(0.924817 -0.380411 0.327363 0.944899 205.43 292.185)" fill="url(#paint4_linear_1124_858)"/>
<rect width="186.907" height="378.728" rx="12.3606" transform="matrix(0.924817 -0.380411 0.327363 0.944899 216.127 301.127)" fill="white"/>
<path d="M389.616 423.434C389.75 423.947 389.869 424.493 390.052 424.988C393.712 434.853 397.348 444.728 401.058 454.575C401.535 455.861 401.335 456.385 400.028 456.729C398.805 457.071 397.603 457.545 396.443 458.06C395.522 458.458 395.122 458.212 394.782 457.298C393.312 453.258 391.792 449.237 390.296 445.207C386.177 434.105 382.067 423.028 377.924 411.935C377.566 410.971 377.599 410.452 378.696 410.073C381.344 409.175 383.981 408.169 386.583 407.147C387.39 406.819 387.803 406.947 388.239 407.742C393.659 417.348 399.105 426.946 404.575 436.534C404.894 437.09 405.278 437.595 405.622 438.142C405.745 438.096 405.853 438.084 405.977 438.039C405.717 436.504 405.472 434.935 405.138 433.427C403.119 423.74 401.076 414.062 398.998 404.369C398.713 403.068 398.984 402.434 400.346 402.012C402.865 401.219 405.31 400.227 407.748 399.294C408.515 399.01 408.925 399.054 409.237 399.895C414.919 415.284 420.64 430.629 426.322 446.018C426.395 446.216 426.419 446.432 426.507 446.821C424.455 447.582 422.436 448.359 420.357 449.047C420.159 449.12 419.614 448.563 419.452 448.201C418.55 445.92 417.721 443.611 416.868 441.312C413.902 433.242 410.921 425.206 407.955 417.136C407.835 416.815 407.676 416.536 407.232 416.251C407.279 416.908 407.243 417.569 407.389 418.19C409.499 428.349 411.667 438.515 413.743 448.659C414.411 451.9 414.793 451.111 411.746 452.298C410.642 452.735 409.511 453.099 408.408 453.536C407.725 453.818 407.296 453.724 406.906 453.053C403.394 446.845 399.856 440.647 396.319 434.449C394.433 430.957 392.429 427.453 390.435 423.974C390.294 423.745 390.079 423.543 389.888 423.333C389.78 423.345 389.681 423.381 389.616 423.434Z" fill="#555356"/>
<path d="M321.658 454.526C321.789 453.212 321.97 451.879 322.067 450.549C322.626 444.322 323.151 438.079 323.651 431.846C323.726 430.834 324.083 430.279 325.09 429.962C326.947 429.357 328.783 428.62 330.86 427.849C330.845 428.642 330.865 429.226 330.801 429.812C330.047 437.181 329.283 444.524 328.588 451.899C328.518 452.544 328.829 453.385 329.263 453.871C335.203 460.556 341.174 467.173 347.13 473.824C347.616 474.375 348.077 474.935 348.719 475.682C346.321 476.571 344.089 477.456 341.827 478.182C341.497 478.277 340.829 477.765 340.49 477.384C336.294 472.669 332.146 467.935 327.974 463.21C327.679 462.869 327.31 462.556 326.663 461.952C326.418 464.322 325.531 466.254 326.259 468.291C327.75 472.463 329.291 476.617 330.873 480.728C331.283 481.757 331.201 482.294 330.036 482.642C328.442 483.121 326.884 483.699 325.363 484.375C324.228 484.881 323.943 484.34 323.604 483.425C320.5 474.984 317.356 466.586 314.228 458.155C311.813 451.569 309.388 444.958 306.88 438.35C306.449 437.188 306.666 436.713 307.807 436.374C309.342 435.889 310.875 435.32 312.356 434.686C313.352 434.261 313.746 434.565 314.069 435.513C316.228 441.407 318.402 447.267 320.61 453.143C320.794 453.637 321.018 454.089 321.226 454.574C321.383 454.544 321.516 454.523 321.658 454.526Z" fill="#555356"/>
<path d="M384.754 462.569C382.479 463.413 380.346 464.26 378.133 464.969C377.861 465.069 377.209 464.524 376.97 464.106C375.767 462.077 374.629 459.996 373.516 457.905C373.123 457.151 372.651 457.017 371.91 457.292C369.412 458.218 366.89 459.154 364.393 460.081C363.651 460.356 363.434 460.83 363.61 461.609C364.13 463.919 364.566 466.233 365.11 468.534C365.333 469.437 365.106 469.886 364.206 470.192C362.473 470.751 360.76 471.442 358.881 472.14C358.713 471.611 358.542 471.225 358.478 470.826C356.209 459.404 353.94 447.981 351.672 436.559C350.81 432.265 349.924 427.981 349.037 423.696C348.579 421.475 348.554 421.484 350.681 420.696C353.178 419.769 355.718 418.883 358.188 417.882C359.118 417.509 359.609 417.692 360.096 418.552C364.029 425.588 368.002 432.581 371.959 439.608C376.067 446.889 380.15 454.178 384.257 461.459C384.411 461.796 384.53 462.117 384.754 462.569ZM357.286 428.568C357.138 428.623 356.99 428.678 356.817 428.742C356.855 429.15 356.903 429.582 356.991 429.972C357.899 434.389 358.797 438.781 359.705 443.198C360.37 446.355 361.068 449.528 361.733 452.685C361.852 453.232 361.917 453.939 362.742 453.661C365.011 452.875 367.227 452.025 369.675 451.117C365.479 443.447 361.4 436.015 357.286 428.568Z" fill="#555356"/>
<path d="M353.845 417.85C358.625 416.077 361.062 410.765 359.288 405.985C357.515 401.206 352.203 398.769 347.424 400.542C342.644 402.315 340.207 407.627 341.98 412.407C343.754 417.186 349.066 419.623 353.845 417.85Z" fill="#40F102"/>
<ellipse rx="3.84031" ry="4.09556" transform="matrix(0.924817 -0.380411 0.327363 0.944899 306.423 276.761)" fill="#575757"/>
<path d="M599.591 552.144L186.141 624.226V572.675C186.141 571.378 187.045 570.256 188.313 569.981L596.945 481.264C601.241 480.332 605.301 483.605 605.301 488.002V545.353C605.301 548.703 602.892 551.569 599.591 552.144Z" fill="url(#paint5_linear_1124_858)"/>
<g filter="url(#filter0_f_1124_858)">
<ellipse cx="395.721" cy="834.496" rx="150.291" ry="14.4776" fill="black" fill-opacity="0.13"/>
</g>
<g filter="url(#filter1_f_1124_858)">
<path d="M661.655 282.279L573.589 354.513L583.93 371.903L677 311.708L661.655 282.279Z" fill="#40F102"/>
</g>
<path d="M13.1006 403.015L100.364 455.984L161.399 452.046L14.3105 370.931L13.1006 403.015Z" fill="#40F102"/>
<g filter="url(#filter2_f_1124_858)">
<path d="M275.01 41.8945L293.097 250.991L389.675 250.991L309.748 7.30743L275.01 41.8945Z" fill="#40F102"/>
</g>
<defs>
<filter id="filter0_f_1124_858" x="238.536" y="813.124" width="314.371" height="42.7433" filterUnits="userSpaceOnUse" color-interpolation-filters="sRGB">
<feFlood flood-opacity="0" result="BackgroundImageFix"/>
<feBlend mode="normal" in="SourceGraphic" in2="BackgroundImageFix" result="shape"/>
<feGaussianBlur stdDeviation="3.44705" result="effect1_foregroundBlur_1124_858"/>
</filter>
<filter id="filter1_f_1124_858" x="565.316" y="274.006" width="119.957" height="106.169" filterUnits="userSpaceOnUse" color-interpolation-filters="sRGB">
<feFlood flood-opacity="0" result="BackgroundImageFix"/>
<feBlend mode="normal" in="SourceGraphic" in2="BackgroundImageFix" result="shape"/>
<feGaussianBlur stdDeviation="4.13646" result="effect1_foregroundBlur_1124_858"/>
</filter>
<filter id="filter2_f_1124_858" x="268.116" y="0.413281" width="128.453" height="257.472" filterUnits="userSpaceOnUse" color-interpolation-filters="sRGB">
<feFlood flood-opacity="0" result="BackgroundImageFix"/>
<feBlend mode="normal" in="SourceGraphic" in2="BackgroundImageFix" result="shape"/>
<feGaussianBlur stdDeviation="3.44705" result="effect1_foregroundBlur_1124_858"/>
</filter>
<linearGradient id="paint0_linear_1124_858" x1="395.721" y1="479.45" x2="395.721" y2="800.715" gradientUnits="userSpaceOnUse">
<stop offset="0.586458" stop-color="#40F102"/>
<stop offset="1" stop-color="#02B9F1"/>
</linearGradient>
<linearGradient id="paint1_linear_1124_858" x1="395.721" y1="479.45" x2="395.721" y2="800.715" gradientUnits="userSpaceOnUse">
<stop offset="0.586458" stop-color="#40F102"/>
<stop offset="1" stop-color="#02B9F1"/>
</linearGradient>
<linearGradient id="paint2_linear_1124_858" x1="395.721" y1="479.45" x2="395.721" y2="800.715" gradientUnits="userSpaceOnUse">
<stop offset="0.586458" stop-color="#40F102"/>
<stop offset="1" stop-color="#02B9F1"/>
</linearGradient>
<linearGradient id="paint3_linear_1124_858" x1="0.1028" y1="160.521" x2="11.2096" y2="160.651" gradientUnits="userSpaceOnUse">
<stop stop-color="#404040"/>
<stop offset="1" stop-color="#9C9C9C"/>
</linearGradient>
<linearGradient id="paint4_linear_1124_858" x1="15.221" y1="168.913" x2="-12.8142" y2="168.295" gradientUnits="userSpaceOnUse">
<stop stop-color="#404040"/>
<stop offset="1" stop-color="#A6A6A6"/>
</linearGradient>
<linearGradient id="paint5_linear_1124_858" x1="395.721" y1="479.45" x2="380.5" y2="916.5" gradientUnits="userSpaceOnUse">
<stop stop-color="#40F102"/>
<stop offset="1" stop-color="#02B9F1"/>
</linearGradient>
</defs>
</svg>
