<svg width="110" height="72" viewBox="0 0 110 72" fill="none" xmlns="http://www.w3.org/2000/svg">
<path d="M82.7578 36.1387C82.7051 36.6661 82.6259 37.2199 82.6259 37.7474C82.6259 48.2701 82.5996 58.7928 82.6523 69.3156C82.6523 70.687 82.2831 71.1089 80.9381 70.9771C79.6722 70.8716 78.3799 70.8979 77.114 70.9771C76.1119 71.0298 75.8218 70.6606 75.8218 69.6848C75.8482 65.386 75.8218 61.0873 75.8218 56.7885C75.8218 44.9472 75.8218 33.1322 75.7954 21.2908C75.7954 20.2623 76.0064 19.7876 77.1668 19.8139C79.9623 19.893 82.7842 19.8667 85.5797 19.8139C86.45 19.7876 86.7928 20.0513 86.9247 20.948C88.6653 31.8399 90.4323 42.7318 92.2256 53.6238C92.3311 54.2567 92.5157 54.8633 92.6476 55.4963C92.7795 55.4963 92.885 55.5226 93.0168 55.5226C93.3069 53.993 93.6234 52.437 93.8344 50.9074C95.3112 41.1231 96.7617 31.3388 98.1859 21.5282C98.3705 20.2095 98.8452 19.7084 100.269 19.7876C102.907 19.9194 105.544 19.8403 108.155 19.8139C108.972 19.8139 109.342 19.9985 109.342 20.8952C109.315 37.2991 109.342 53.6765 109.315 70.0804C109.315 70.2914 109.262 70.5023 109.21 70.8979C107.021 70.8979 104.858 70.9243 102.669 70.8452C102.458 70.8452 102.142 70.1331 102.115 69.7375C102.063 67.2849 102.089 64.8322 102.089 62.3795C102.115 53.782 102.115 45.2109 102.142 36.6134C102.142 36.2705 102.089 35.9541 101.773 35.5321C101.588 36.165 101.324 36.7716 101.245 37.4046C99.6891 47.6635 98.1859 57.9489 96.6035 68.1815C96.1024 71.4518 96.7354 70.8452 93.4651 70.8979C92.2784 70.9243 91.0916 70.8716 89.9048 70.8979C89.1664 70.9243 88.7972 70.687 88.6653 69.9221C87.5313 62.8806 86.3709 55.8391 85.2105 48.7976C84.6567 44.868 83.9973 40.8858 83.338 36.9298C83.2853 36.6661 83.1534 36.4024 83.0479 36.1387C82.9424 36.1123 82.8369 36.1123 82.7578 36.1387Z" fill="#555356"/>
<path d="M8.2283 41.6505C8.8085 40.4638 9.44144 39.277 9.99527 38.0638C12.6853 32.4201 15.3489 26.7499 17.9862 21.0798C18.4082 20.1568 18.9356 19.7612 19.9905 19.8139C21.9421 19.893 23.9201 19.8403 26.1354 19.8403C25.8453 20.5787 25.6607 21.1325 25.397 21.66C22.1267 28.3059 18.8565 34.9255 15.639 41.5978C15.3489 42.178 15.3489 43.0747 15.5863 43.6812C18.8301 52.015 22.1267 60.2961 25.397 68.6035C25.6607 69.2892 25.898 69.9749 26.2409 70.8979C23.6827 70.8979 21.2828 70.9507 18.9093 70.8452C18.5664 70.8188 18.1181 70.1067 17.9335 69.632C15.639 63.7509 13.3974 57.8698 11.1293 51.9887C10.9711 51.5667 10.7337 51.1447 10.3381 50.3535C9.28321 52.4897 7.77996 53.993 7.75359 56.1555C7.70084 60.5862 7.70084 65.0168 7.75359 69.421C7.77996 70.5287 7.51623 71.0034 6.30309 70.9243C4.6416 70.8188 2.98012 70.8188 1.31864 70.9243C0.0791183 71.0034 0 70.3968 0 69.421C0.0263727 60.4279 0 51.4612 0 42.4681C0.0263727 35.4529 0.0527455 28.4114 0 21.3435C0 20.104 0.369218 19.7348 1.55599 19.8139C3.16473 19.893 4.79984 19.893 6.40858 19.8139C7.48986 19.7612 7.75359 20.1831 7.72721 21.1853C7.70084 27.462 7.70084 33.7123 7.72721 39.9891C7.72721 40.5165 7.77996 41.0176 7.80633 41.545C7.96457 41.5714 8.09643 41.5978 8.2283 41.6505Z" fill="#555356"/>
<path d="M64.5859 71.1381C62.1596 71.1381 59.8652 71.1909 57.5444 71.0854C57.2543 71.0854 56.8323 70.347 56.7532 69.8723C56.3312 67.5515 55.9884 65.2043 55.6719 62.8571C55.5664 62.0132 55.1708 61.7231 54.3796 61.7231C51.716 61.7231 49.026 61.7231 46.3623 61.7231C45.5711 61.7231 45.2019 62.0923 45.0964 62.8835C44.78 65.2307 44.3844 67.5514 44.0943 69.8986C43.9888 70.8217 43.6196 71.1645 42.6701 71.1381C40.8504 71.059 39.0043 71.1118 37 71.1118C37.0264 70.5579 37 70.136 37.0791 69.7404C38.9252 58.2419 40.7713 46.7434 42.6174 35.2448C43.3031 30.9197 43.9624 26.5946 44.6217 22.2695C44.9646 20.0278 44.9382 20.0278 47.2063 20.0278C49.8699 20.0278 52.5599 20.0805 55.2236 20.0014C56.2257 19.975 56.6213 20.3179 56.7796 21.2937C58.0191 29.2582 59.3113 37.1964 60.5772 45.161C61.8959 53.4157 63.1881 61.6703 64.5068 69.925C64.5331 70.2942 64.5331 70.6371 64.5859 71.1381ZM50.6611 29.7066C50.5028 29.7066 50.3446 29.7066 50.16 29.7066C50.0545 30.1022 49.949 30.5241 49.8963 30.9197C49.2106 35.3767 48.5249 39.8073 47.8392 44.2643C47.3645 47.4554 46.9162 50.6729 46.4414 53.864C46.3623 54.4178 46.1777 55.1035 47.048 55.1299C49.4479 55.1826 51.8215 55.1563 54.4324 55.1563C53.1665 46.506 51.927 38.1195 50.6611 29.7066Z" fill="#555356"/>
<path d="M51.1631 18.4609C56.2609 18.4609 60.3935 14.3283 60.3935 9.23046C60.3935 4.13262 56.2609 0 51.1631 0C46.0652 0 41.9326 4.13262 41.9326 9.23046C41.9326 14.3283 46.0652 18.4609 51.1631 18.4609Z" fill="#40F102"/>
</svg>
