<svg width="415" height="335" viewBox="0 0 415 335" fill="none" xmlns="http://www.w3.org/2000/svg">
<path d="M313.8 137.03C313.6 139.03 313.3 141.13 313.3 143.13C313.3 183.03 313.2 222.93 313.4 262.83C313.4 268.03 312 269.63 306.9 269.13C302.1 268.73 297.2 268.83 292.4 269.13C288.6 269.33 287.5 267.93 287.5 264.23C287.6 247.93 287.5 231.63 287.5 215.33C287.5 170.43 287.5 125.63 287.4 80.7304C287.4 76.8304 288.2 75.0304 292.6 75.1304C303.2 75.4304 313.9 75.3304 324.5 75.1304C327.8 75.0304 329.1 76.0304 329.6 79.4304C336.2 120.73 342.9 162.03 349.7 203.33C350.1 205.73 350.8 208.03 351.3 210.43C351.8 210.43 352.2 210.53 352.7 210.53C353.8 204.73 355 198.83 355.8 193.03C361.4 155.93 366.9 118.83 372.3 81.6304C373 76.6304 374.8 74.7304 380.2 75.0304C390.2 75.5304 400.2 75.2304 410.1 75.1304C413.2 75.1304 414.6 75.8304 414.6 79.2304C414.5 141.43 414.6 203.53 414.5 265.73C414.5 266.53 414.3 267.33 414.1 268.83C405.8 268.83 397.6 268.93 389.3 268.63C388.5 268.63 387.3 265.93 387.2 264.43C387 255.13 387.1 245.83 387.1 236.53C387.2 203.93 387.2 171.43 387.3 138.83C387.3 137.53 387.1 136.33 385.9 134.73C385.2 137.13 384.2 139.43 383.9 141.83C378 180.73 372.3 219.73 366.3 258.53C364.4 270.93 366.8 268.63 354.4 268.83C349.9 268.93 345.4 268.73 340.9 268.83C338.1 268.93 336.7 268.03 336.2 265.13C331.9 238.43 327.5 211.73 323.1 185.03C321 170.13 318.5 155.03 316 140.03C315.8 139.03 315.3 138.03 314.9 137.03C314.5 136.93 314.1 136.93 313.8 137.03Z" fill="white"/>
<path d="M31.2 157.93C33.4 153.43 35.8 148.93 37.9 144.33C48.1 122.93 58.2 101.43 68.2 79.9305C69.8 76.4305 71.8 74.9305 75.8 75.1305C83.2 75.4305 90.7 75.2305 99.1 75.2305C98 78.0305 97.3 80.1305 96.3 82.1305C83.9 107.33 71.5 132.43 59.3 157.73C58.2 159.93 58.2 163.33 59.1 165.63C71.4 197.23 83.9 228.63 96.3 260.13C97.3 262.73 98.2 265.33 99.5 268.83C89.8 268.83 80.7 269.03 71.7 268.63C70.4 268.53 68.7 265.83 68 264.03C59.3 241.73 50.8 219.43 42.2 197.13C41.6 195.53 40.7 193.93 39.2 190.93C35.2 199.03 29.5 204.73 29.4 212.93C29.2 229.73 29.2 246.53 29.4 263.23C29.5 267.43 28.5 269.23 23.9 268.93C17.6 268.53 11.3 268.53 5 268.93C0.3 269.23 0 266.93 0 263.23C0.1 229.13 0 195.13 0 161.03C0.1 134.43 0.2 107.73 0 80.9305C0 76.2305 1.4 74.8305 5.9 75.1305C12 75.4305 18.2 75.4305 24.3 75.1305C28.4 74.9305 29.4 76.5305 29.3 80.3305C29.2 104.13 29.2 127.83 29.3 151.63C29.3 153.63 29.5 155.53 29.6 157.53C30.2 157.63 30.7 157.73 31.2 157.93Z" fill="white"/>
<path d="M246.8 268.93C237.6 268.93 228.9 269.13 220.1 268.73C219 268.73 217.4 265.93 217.1 264.13C215.5 255.33 214.2 246.43 213 237.53C212.6 234.33 211.1 233.23 208.1 233.23C198 233.23 187.8 233.23 177.7 233.23C174.7 233.23 173.3 234.63 172.9 237.63C171.7 246.53 170.2 255.33 169.1 264.23C168.7 267.73 167.3 269.03 163.7 268.93C156.8 268.63 149.8 268.83 142.2 268.83C142.3 266.73 142.2 265.13 142.5 263.63C149.5 220.03 156.5 176.43 163.5 132.83C166.1 116.43 168.6 100.03 171.1 83.6305C172.4 75.1305 172.3 75.1305 180.9 75.1305C191 75.1305 201.2 75.3305 211.3 75.0305C215.1 74.9305 216.6 76.2305 217.2 79.9305C221.9 110.13 226.8 140.23 231.6 170.43C236.6 201.73 241.5 233.03 246.5 264.33C246.6 265.73 246.6 267.03 246.8 268.93ZM194 111.83C193.4 111.83 192.8 111.83 192.1 111.83C191.7 113.33 191.3 114.93 191.1 116.43C188.5 133.33 185.9 150.13 183.3 167.03C181.5 179.13 179.8 191.33 178 203.43C177.7 205.53 177 208.13 180.3 208.23C189.4 208.43 198.4 208.33 208.3 208.33C203.5 175.53 198.8 143.73 194 111.83Z" fill="white"/>
<path d="M194 70C213.33 70 229 54.33 229 35C229 15.67 213.33 0 194 0C174.67 0 159 15.67 159 35C159 54.33 174.67 70 194 70Z" fill="#40F102"/>
<path d="M24.4883 315.539C21.194 315.005 18.8503 313.742 17.457 311.75C16.0768 309.758 15.3867 307.388 15.3867 304.641C15.3867 301.737 16.1484 299.322 17.6719 297.395C19.2083 295.454 21.4805 294.237 24.4883 293.742V290.539H29.4883V293.762C31.6628 294.061 33.4466 294.784 34.8398 295.93C36.2331 297.076 37.2031 298.41 37.75 299.934C38.3099 301.444 38.5898 303.013 38.5898 304.641C38.5898 310.786 35.556 314.406 29.4883 315.5V318.781H24.4883V315.539ZM24.4883 298.273C22.1966 299.133 21.0508 301.314 21.0508 304.816C21.0508 308.072 22.1966 310.142 24.4883 311.027V298.273ZM29.4883 311.027C31.7799 310.155 32.9258 307.967 32.9258 304.465C32.9258 301.223 31.7799 299.159 29.4883 298.273V311.027ZM48.3555 315.266V318H42.4961V291.34H48.3555V306.301L49.2344 304.68L55.1914 294.289V291.34H61.0508V318H55.1914V304.191L55.2109 303.137L54.2734 304.895L48.3555 315.266ZM63.1016 291.34H79.7227V296.34H74.2734V318H68.4141V296.34H63.1016V291.34ZM81.7539 291.34H87.6133V302.102H94.0195V291.34H99.8789V318H94.0195V307.102H87.6133V318H81.7539V291.34ZM104.918 291.34H121.129V295.91H110.777V302.102H118.824V306.691H110.777V313.234H121.129V318H104.918V291.34ZM136.988 308.293L142.398 308.625C142.203 311.516 141.285 313.872 139.645 315.695C138.004 317.505 135.836 318.41 133.141 318.41C129.859 318.41 127.359 317.193 125.641 314.758C123.922 312.323 123.062 308.97 123.062 304.699C123.062 300.389 123.915 297.017 125.621 294.582C127.327 292.147 129.859 290.93 133.219 290.93C138.779 290.93 141.806 294.367 142.301 301.242L136.949 301.633C136.806 297.674 135.569 295.695 133.238 295.695C132.014 295.695 131.038 296.333 130.309 297.609C129.592 298.885 129.234 301.359 129.234 305.031C129.234 308.312 129.566 310.572 130.23 311.809C130.895 313.033 131.891 313.645 133.219 313.645C135.354 313.645 136.611 311.861 136.988 308.293ZM153.316 291.34H171.441V318H165.582V296.34H159.176V318H153.316V291.34ZM176.48 291.34H184.156C186.487 291.34 188.29 291.535 189.566 291.926C190.855 292.316 191.936 293.202 192.809 294.582C193.681 295.949 194.117 297.648 194.117 299.68C194.117 301.633 193.766 303.247 193.062 304.523C192.359 305.799 191.383 306.724 190.133 307.297C188.896 307.857 186.988 308.137 184.41 308.137H182.34V318H176.48V291.34ZM182.34 295.656V303.547H184.156C185.758 303.547 186.786 303.176 187.242 302.434C187.711 301.691 187.945 300.728 187.945 299.543C187.945 298.54 187.763 297.733 187.398 297.121C187.047 296.496 186.63 296.099 186.148 295.93C185.68 295.747 185.016 295.656 184.156 295.656H182.34ZM215.348 304.66C215.348 313.827 212.125 318.41 205.68 318.41C202.477 318.41 200.061 317.245 198.434 314.914C196.806 312.57 195.992 309.152 195.992 304.66C195.992 295.507 199.215 290.93 205.66 290.93C208.811 290.93 211.214 292.076 212.867 294.367C214.521 296.659 215.348 300.09 215.348 304.66ZM209.176 304.66C209.176 301.066 208.896 298.677 208.336 297.492C207.776 296.294 206.884 295.695 205.66 295.695C204.449 295.695 203.564 296.294 203.004 297.492C202.444 298.69 202.164 301.079 202.164 304.66C202.164 308.176 202.438 310.552 202.984 311.789C203.544 313.026 204.436 313.645 205.66 313.645C206.871 313.645 207.757 313.052 208.316 311.867C208.889 310.682 209.176 308.28 209.176 304.66ZM232.418 308.293L237.828 308.625C237.633 311.516 236.715 313.872 235.074 315.695C233.434 317.505 231.266 318.41 228.57 318.41C225.289 318.41 222.789 317.193 221.07 314.758C219.352 312.323 218.492 308.97 218.492 304.699C218.492 300.389 219.345 297.017 221.051 294.582C222.757 292.147 225.289 290.93 228.648 290.93C234.208 290.93 237.236 294.367 237.73 301.242L232.379 301.633C232.236 297.674 230.999 295.695 228.668 295.695C227.444 295.695 226.467 296.333 225.738 297.609C225.022 298.885 224.664 301.359 224.664 305.031C224.664 308.312 224.996 310.572 225.66 311.809C226.324 313.033 227.32 313.645 228.648 313.645C230.784 313.645 232.04 311.861 232.418 308.293ZM238.961 291.34H255.582V296.34H250.133V318H244.273V296.34H238.961V291.34ZM257.613 291.34H265.289C267.62 291.34 269.423 291.535 270.699 291.926C271.988 292.316 273.069 293.202 273.941 294.582C274.814 295.949 275.25 297.648 275.25 299.68C275.25 301.633 274.898 303.247 274.195 304.523C273.492 305.799 272.516 306.724 271.266 307.297C270.029 307.857 268.121 308.137 265.543 308.137H263.473V318H257.613V291.34ZM263.473 295.656V303.547H265.289C266.891 303.547 267.919 303.176 268.375 302.434C268.844 301.691 269.078 300.728 269.078 299.543C269.078 298.54 268.896 297.733 268.531 297.121C268.18 296.496 267.763 296.099 267.281 295.93C266.812 295.747 266.148 295.656 265.289 295.656H263.473ZM281.891 291.34H287.789L295.406 318H289.41L288.082 312.492H280.582L279.273 318H273.883L281.891 291.34ZM286.969 307.922L284.293 297.043L281.695 307.922H286.969ZM297.652 291.34H303.512V302.102H309.918V291.34H315.777V318H309.918V307.102H303.512V318H297.652V291.34ZM333.785 308.293L339.195 308.625C339 311.516 338.082 313.872 336.441 315.695C334.801 317.505 332.633 318.41 329.938 318.41C326.656 318.41 324.156 317.193 322.438 314.758C320.719 312.323 319.859 308.97 319.859 304.699C319.859 300.389 320.712 297.017 322.418 294.582C324.124 292.147 326.656 290.93 330.016 290.93C335.576 290.93 338.603 294.367 339.098 301.242L333.746 301.633C333.603 297.674 332.366 295.695 330.035 295.695C328.811 295.695 327.835 296.333 327.105 297.609C326.389 298.885 326.031 301.359 326.031 305.031C326.031 308.312 326.363 310.572 327.027 311.809C327.691 313.033 328.688 313.645 330.016 313.645C332.151 313.645 333.408 311.861 333.785 308.293ZM340.328 291.34H356.949V296.34H351.5V318H345.641V296.34H340.328V291.34ZM358.98 291.34H368.082C370.217 291.34 371.826 291.509 372.906 291.848C374 292.186 374.911 292.928 375.641 294.074C376.383 295.22 376.754 296.646 376.754 298.352C376.754 301.333 375.484 303.247 372.945 304.094C375.966 305.161 377.477 307.342 377.477 310.637C377.477 312.368 377.066 313.833 376.246 315.031C375.426 316.216 374.41 317.01 373.199 317.414C372.001 317.805 370.296 318 368.082 318H358.98V291.34ZM364.605 302.102H366.5C368.388 302.102 369.573 301.763 370.055 301.086C370.549 300.409 370.797 299.634 370.797 298.762C370.797 297.954 370.549 297.238 370.055 296.613C369.573 295.975 368.531 295.656 366.93 295.656H364.605V302.102ZM364.605 313.41H367.477C370.172 313.41 371.52 312.251 371.52 309.934C371.52 308.645 371.181 307.74 370.504 307.219C369.84 306.685 368.831 306.418 367.477 306.418H364.605V313.41ZM399.879 304.66C399.879 313.827 396.656 318.41 390.211 318.41C387.008 318.41 384.592 317.245 382.965 314.914C381.337 312.57 380.523 309.152 380.523 304.66C380.523 295.507 383.746 290.93 390.191 290.93C393.342 290.93 395.745 292.076 397.398 294.367C399.052 296.659 399.879 300.09 399.879 304.66ZM393.707 304.66C393.707 301.066 393.427 298.677 392.867 297.492C392.307 296.294 391.415 295.695 390.191 295.695C388.98 295.695 388.095 296.294 387.535 297.492C386.975 298.69 386.695 301.079 386.695 304.66C386.695 308.176 386.969 310.552 387.516 311.789C388.076 313.026 388.967 313.645 390.191 313.645C391.402 313.645 392.288 313.052 392.848 311.867C393.421 310.682 393.707 308.28 393.707 304.66Z" fill="#40F102"/>
</svg>
