<svg width="69" height="69" viewBox="0 0 69 69" fill="none" xmlns="http://www.w3.org/2000/svg">
<path d="M67.8635 34.0979C67.8635 52.302 53.1062 67.0593 34.9021 67.0593C16.6981 67.0593 1.9408 52.302 1.9408 34.0979C1.9408 15.8939 16.6981 1.1366 34.9021 1.1366C53.1062 1.1366 67.8635 15.8939 67.8635 34.0979Z" stroke="white" stroke-width="2.2732"/>
<path d="M23.6108 36.798L27.5245 47.4592L44.9333 23.2578L23.6108 36.798Z" fill="white"/>
<path d="M27.9747 39.1816L27.5698 47.5487L36.7466 39.7664L27.9747 39.1816Z" fill="#9FCDE2"/>
<path d="M49.1621 19.2082L14.8842 32.2536C13.8945 32.6135 13.9395 34.008 14.9292 34.3229L23.7461 37.2918L43.8989 24.2914L27.9746 39.1812L40.3902 48.5828C41.6947 49.5725 43.5391 48.8977 43.9439 47.3233L50.6465 20.4678C50.8715 19.6131 50.0168 18.8933 49.1621 19.2082Z" fill="white"/>
</svg>
