<svg width="69" height="69" viewBox="0 0 69 69" fill="none" xmlns="http://www.w3.org/2000/svg">
<path d="M67.0593 34.0979C67.0593 52.285 52.285 67.0593 34.0979 67.0593C15.9096 67.0593 1.1366 52.3445 1.1366 34.0979C1.1366 15.9109 15.9109 1.1366 34.0979 1.1366C52.3445 1.1366 67.0593 15.9096 67.0593 34.0979Z" stroke="white" stroke-width="2.2732"/>
<path d="M53.1938 24.705C52.684 24.2519 50.7016 24.2519 48.7191 24.3085C46.7367 24.3085 44.6976 24.3085 44.2444 24.5351C43.7913 24.705 42.8284 27.0273 41.5823 29.4063C40.1663 32.125 38.4104 34.6739 37.3342 34.6739C35.9182 34.6739 36.258 30.1992 36.3147 26.9707C36.3713 24.8183 36.0314 24.1386 35.6916 23.9121C34.9553 23.4023 32.8595 22.8925 32.8595 22.8925C32.8595 22.8925 26.629 22.4394 25.7794 25.1015C26.9688 25.2714 29.0079 24.875 28.2149 33.2012C28.1583 33.5977 27.252 37.0528 24.3633 32.4083C23.627 31.2754 20.8516 24.3085 19.8887 24.3085C16.6601 24.1953 13.4882 24.082 12.3554 24.705C11.3358 25.2714 13.7714 30.086 17.8496 36.4864C21.1914 41.6974 24.7598 45.7756 30.8771 46.7952C32.0099 46.9084 35.0119 47.0217 35.9748 46.5686C36.5979 46.2287 35.8615 41.6974 38.0139 41.3009C38.9768 41.131 42.7151 46.0022 44.1312 46.5686C44.9808 46.9084 46.8499 47.0217 48.7757 46.9651C50.8715 46.9084 53.1938 47.135 53.4203 45.719C53.9301 42.6037 47.1332 38.5255 46.9066 36.5997C46.7367 35.2403 49.3988 32.6348 50.7582 30.709C52.4008 28.4434 54.2133 25.5547 53.1938 24.705Z" fill="white"/>
</svg>
