<svg width="2957" height="396" viewBox="0 0 2957 396" fill="none" xmlns="http://www.w3.org/2000/svg">
<path d="M994 34.7194C1042.94 3.64107 1120.9 4.10493 1161.07 34.07C1232.52 88.2484 1309.06 33.5134 1309.06 33.5134C1309.06 33.5134 1393.54 -16.7686 1470.21 32.9568" stroke="#404040" stroke-width="21.328" stroke-miterlimit="10" stroke-linecap="square"/>
<path d="M994.119 63.6637C1043.05 32.5854 1121.02 33.0493 1161.19 63.0144C1232.64 117.193 1309.18 62.4577 1309.18 62.4577C1309.18 62.4577 1393.66 12.1757 1470.32 61.9011" stroke="#404040" stroke-width="21.328" stroke-miterlimit="10" stroke-linecap="square"/>
<path d="M994.237 92.6086C1043.17 61.5302 1121.14 61.9941 1161.31 91.9592C1232.75 146.138 1309.3 91.4025 1309.3 91.4025C1309.3 91.4025 1393.78 41.1206 1470.44 90.8459" stroke="#404040" stroke-width="21.328" stroke-miterlimit="10" stroke-linecap="square"/>
<path d="M994.355 121.553C1043.29 90.4751 1121.26 90.9389 1161.42 120.904C1232.87 175.082 1309.42 120.347 1309.42 120.347C1309.42 120.347 1393.9 70.0654 1470.56 119.791" stroke="#404040" stroke-width="21.328" stroke-miterlimit="10" stroke-linecap="square"/>
<path d="M994.474 150.405C1043.41 119.327 1121.38 119.79 1161.54 149.756C1232.87 204.027 1309.54 149.292 1309.54 149.292C1309.54 149.292 1394.02 99.0097 1470.68 148.735" stroke="#404040" stroke-width="21.328" stroke-miterlimit="10" stroke-linecap="square"/>
<path d="M994.592 179.35C1043.53 148.271 1121.49 148.735 1161.66 178.7C1233.11 232.879 1309.65 178.144 1309.65 178.144C1309.65 178.144 1394.14 127.862 1470.8 177.587" stroke="#404040" stroke-width="21.328" stroke-miterlimit="10" stroke-linecap="square"/>
<path d="M1963 186.029C1914.06 217.107 1836.1 216.643 1795.93 186.678C1724.48 132.5 1647.94 187.235 1647.94 187.235C1647.94 187.235 1563.46 237.517 1486.79 187.791" stroke="#404040" stroke-width="21.328" stroke-miterlimit="10" stroke-linecap="square"/>
<path d="M1962.88 157.178C1913.95 188.256 1835.98 187.792 1795.81 157.827C1724.36 103.649 1647.82 158.384 1647.82 158.384C1647.82 158.384 1563.34 208.666 1486.68 158.94" stroke="#404040" stroke-width="21.328" stroke-miterlimit="10" stroke-linecap="square"/>
<path d="M1962.76 128.233C1913.83 159.312 1835.86 158.848 1795.69 128.883C1724.25 74.7042 1647.7 129.439 1647.7 129.439C1647.7 129.439 1563.22 179.721 1486.56 129.996" stroke="#404040" stroke-width="21.328" stroke-miterlimit="10" stroke-linecap="square"/>
<path d="M1962.64 99.2879C1913.71 130.366 1835.74 129.902 1795.58 99.9373C1724.13 45.7589 1647.58 100.494 1647.58 100.494C1647.58 100.494 1563.1 150.776 1486.44 101.051" stroke="#404040" stroke-width="21.328" stroke-miterlimit="10" stroke-linecap="square"/>
<path d="M1962.53 70.3435C1913.59 101.422 1835.62 100.958 1795.46 70.9929C1724.01 16.8146 1647.46 71.5496 1647.46 71.5496C1647.46 71.5496 1562.98 121.832 1486.32 72.1062" stroke="#404040" stroke-width="21.328" stroke-miterlimit="10" stroke-linecap="square"/>
<path d="M1962.41 41.4916C1913.47 72.5699 1835.51 72.1061 1795.34 42.141C1723.89 -12.1302 1647.35 42.6048 1647.35 42.6048C1647.35 42.6048 1562.86 92.8868 1486.2 43.1615" stroke="#404040" stroke-width="21.328" stroke-miterlimit="10" stroke-linecap="square"/>
<path d="M994 210.057C1042.94 178.978 1120.9 179.442 1161.07 209.407C1232.52 263.586 1309.06 208.851 1309.06 208.851C1309.06 208.851 1393.54 158.569 1470.21 208.294" stroke="#404040" stroke-width="21.328" stroke-miterlimit="10" stroke-linecap="square"/>
<path d="M994.119 239.002C1043.05 207.923 1121.02 208.387 1161.19 238.352C1232.64 292.531 1309.18 237.796 1309.18 237.796C1309.18 237.796 1393.66 187.514 1470.32 237.239" stroke="#404040" stroke-width="21.328" stroke-miterlimit="10" stroke-linecap="square"/>
<path d="M994.237 267.946C1043.17 236.868 1121.14 237.331 1161.31 267.297C1232.75 321.475 1309.3 266.74 1309.3 266.74C1309.3 266.74 1393.78 216.458 1470.44 266.183" stroke="#404040" stroke-width="21.328" stroke-miterlimit="10" stroke-linecap="square"/>
<path d="M994.355 296.891C1043.29 265.812 1121.26 266.276 1161.42 296.241C1232.87 350.42 1309.42 295.685 1309.42 295.685C1309.42 295.685 1393.9 245.403 1470.56 295.128" stroke="#404040" stroke-width="21.328" stroke-miterlimit="10" stroke-linecap="square"/>
<path d="M994.474 325.742C1043.41 294.664 1121.38 295.128 1161.54 325.093C1232.87 379.364 1309.54 324.629 1309.54 324.629C1309.54 324.629 1394.02 274.347 1470.68 324.072" stroke="#404040" stroke-width="21.328" stroke-miterlimit="10" stroke-linecap="square"/>
<path d="M994.592 354.687C1043.53 323.609 1121.49 324.073 1161.66 354.038C1233.11 408.216 1309.65 353.481 1309.65 353.481C1309.65 353.481 1394.14 303.199 1470.8 352.925" stroke="#404040" stroke-width="21.328" stroke-miterlimit="10" stroke-linecap="square"/>
<path d="M1963 361.366C1914.06 392.445 1836.1 391.981 1795.93 362.016C1724.48 307.838 1647.94 362.573 1647.94 362.573C1647.94 362.573 1563.46 412.854 1486.79 363.129" stroke="#404040" stroke-width="21.328" stroke-miterlimit="10" stroke-linecap="square"/>
<path d="M1962.88 332.514C1913.95 363.593 1835.98 363.129 1795.81 333.164C1724.36 278.985 1647.82 333.72 1647.82 333.72C1647.82 333.72 1563.34 384.002 1486.68 334.277" stroke="#404040" stroke-width="21.328" stroke-miterlimit="10" stroke-linecap="square"/>
<path d="M1962.76 303.57C1913.83 334.648 1835.86 334.185 1795.69 304.219C1724.25 250.041 1647.7 304.776 1647.7 304.776C1647.7 304.776 1563.22 355.058 1486.56 305.333" stroke="#404040" stroke-width="21.328" stroke-miterlimit="10" stroke-linecap="square"/>
<path d="M1962.64 274.625C1913.71 305.704 1835.74 305.24 1795.58 275.275C1724.13 221.096 1647.58 275.831 1647.58 275.831C1647.58 275.831 1563.1 326.113 1486.44 276.388" stroke="#404040" stroke-width="21.328" stroke-miterlimit="10" stroke-linecap="square"/>
<path d="M1962.53 245.68C1913.59 276.759 1835.62 276.295 1795.46 246.33C1724.01 192.151 1647.46 246.886 1647.46 246.886C1647.46 246.886 1562.98 297.168 1486.32 247.443" stroke="#404040" stroke-width="21.328" stroke-miterlimit="10" stroke-linecap="square"/>
<path d="M1962.41 216.829C1913.47 247.907 1835.51 247.443 1795.34 217.478C1723.89 163.207 1647.35 217.942 1647.35 217.942C1647.35 217.942 1562.86 268.224 1486.2 218.499" stroke="#404040" stroke-width="21.328" stroke-miterlimit="10" stroke-linecap="square"/>
<path d="M15 34.7194C63.9358 3.64107 141.901 4.10493 182.069 34.07C253.518 88.2484 330.061 33.5134 330.061 33.5134C330.061 33.5134 414.544 -16.7686 491.206 32.9568" stroke="#404040" stroke-width="21.328" stroke-miterlimit="10" stroke-linecap="square"/>
<path d="M15.1186 63.6637C64.0544 32.5854 142.02 33.0493 182.188 63.0144C253.636 117.193 330.18 62.4577 330.18 62.4577C330.18 62.4577 414.662 12.1757 491.324 61.9011" stroke="#404040" stroke-width="21.328" stroke-miterlimit="10" stroke-linecap="square"/>
<path d="M15.2372 92.6086C64.173 61.5302 142.139 61.9941 182.306 91.9592C253.755 146.138 330.299 91.4025 330.299 91.4025C330.299 91.4025 414.781 41.1206 491.443 90.8459" stroke="#404040" stroke-width="21.328" stroke-miterlimit="10" stroke-linecap="square"/>
<path d="M15.3552 121.553C64.291 90.4751 142.257 90.9389 182.424 120.904C253.873 175.082 330.417 120.347 330.417 120.347C330.417 120.347 414.899 70.0654 491.561 119.791" stroke="#404040" stroke-width="21.328" stroke-miterlimit="10" stroke-linecap="square"/>
<path d="M15.4738 150.405C64.4097 119.327 142.375 119.79 182.543 149.756C253.873 204.027 330.535 149.292 330.535 149.292C330.535 149.292 415.018 99.0097 491.68 148.735" stroke="#404040" stroke-width="21.328" stroke-miterlimit="10" stroke-linecap="square"/>
<path d="M15.5924 179.35C64.5282 148.271 142.494 148.735 182.661 178.7C254.11 232.879 330.654 178.144 330.654 178.144C330.654 178.144 415.136 127.862 491.798 177.587" stroke="#404040" stroke-width="21.328" stroke-miterlimit="10" stroke-linecap="square"/>
<path d="M984 186.029C935.064 217.107 857.099 216.643 816.931 186.678C745.482 132.5 668.939 187.235 668.939 187.235C668.939 187.235 584.456 237.517 507.794 187.791" stroke="#404040" stroke-width="21.328" stroke-miterlimit="10" stroke-linecap="square"/>
<path d="M983.881 157.178C934.946 188.256 856.98 187.792 816.812 157.827C745.364 103.649 668.82 158.384 668.82 158.384C668.82 158.384 584.338 208.666 507.676 158.94" stroke="#404040" stroke-width="21.328" stroke-miterlimit="10" stroke-linecap="square"/>
<path d="M983.763 128.233C934.827 159.312 856.862 158.848 816.694 128.883C745.245 74.7042 668.702 129.439 668.702 129.439C668.702 129.439 584.219 179.721 507.557 129.996" stroke="#404040" stroke-width="21.328" stroke-miterlimit="10" stroke-linecap="square"/>
<path d="M983.645 99.2879C934.709 130.366 856.744 129.902 816.576 99.9373C745.127 45.7589 668.584 100.494 668.584 100.494C668.584 100.494 584.101 150.776 507.439 101.051" stroke="#404040" stroke-width="21.328" stroke-miterlimit="10" stroke-linecap="square"/>
<path d="M983.526 70.3435C934.59 101.422 856.625 100.958 816.457 70.9929C745.009 16.8146 668.465 71.5496 668.465 71.5496C668.465 71.5496 583.983 121.832 507.32 72.1062" stroke="#404040" stroke-width="21.328" stroke-miterlimit="10" stroke-linecap="square"/>
<path d="M983.408 41.4916C934.472 72.5699 856.506 72.1061 816.339 42.141C744.89 -12.1302 668.346 42.6048 668.346 42.6048C668.346 42.6048 583.864 92.8868 507.202 43.1615" stroke="#404040" stroke-width="21.328" stroke-miterlimit="10" stroke-linecap="square"/>
<path d="M15 210.057C63.9358 178.978 141.901 179.442 182.069 209.407C253.518 263.586 330.061 208.851 330.061 208.851C330.061 208.851 414.544 158.569 491.206 208.294" stroke="#404040" stroke-width="21.328" stroke-miterlimit="10" stroke-linecap="square"/>
<path d="M15.1186 239.002C64.0544 207.923 142.02 208.387 182.188 238.352C253.636 292.531 330.18 237.796 330.18 237.796C330.18 237.796 414.662 187.514 491.324 237.239" stroke="#404040" stroke-width="21.328" stroke-miterlimit="10" stroke-linecap="square"/>
<path d="M15.2372 267.946C64.173 236.868 142.139 237.331 182.306 267.297C253.755 321.475 330.299 266.74 330.299 266.74C330.299 266.74 414.781 216.458 491.443 266.183" stroke="#404040" stroke-width="21.328" stroke-miterlimit="10" stroke-linecap="square"/>
<path d="M15.3552 296.891C64.291 265.812 142.257 266.276 182.424 296.241C253.873 350.42 330.417 295.685 330.417 295.685C330.417 295.685 414.899 245.403 491.561 295.128" stroke="#404040" stroke-width="21.328" stroke-miterlimit="10" stroke-linecap="square"/>
<path d="M15.4738 325.742C64.4097 294.664 142.375 295.128 182.543 325.093C253.873 379.364 330.535 324.629 330.535 324.629C330.535 324.629 415.018 274.347 491.68 324.072" stroke="#404040" stroke-width="21.328" stroke-miterlimit="10" stroke-linecap="square"/>
<path d="M15.5924 354.687C64.5282 323.609 142.494 324.073 182.661 354.038C254.11 408.216 330.654 353.481 330.654 353.481C330.654 353.481 415.136 303.199 491.798 352.925" stroke="#404040" stroke-width="21.328" stroke-miterlimit="10" stroke-linecap="square"/>
<path d="M984 361.366C935.064 392.445 857.099 391.981 816.931 362.016C745.482 307.838 668.939 362.573 668.939 362.573C668.939 362.573 584.456 412.854 507.794 363.129" stroke="#404040" stroke-width="21.328" stroke-miterlimit="10" stroke-linecap="square"/>
<path d="M983.881 332.514C934.946 363.593 856.98 363.129 816.812 333.164C745.364 278.985 668.82 333.72 668.82 333.72C668.82 333.72 584.338 384.002 507.676 334.277" stroke="#404040" stroke-width="21.328" stroke-miterlimit="10" stroke-linecap="square"/>
<path d="M983.763 303.57C934.827 334.648 856.862 334.185 816.694 304.219C745.245 250.041 668.702 304.776 668.702 304.776C668.702 304.776 584.219 355.058 507.557 305.333" stroke="#404040" stroke-width="21.328" stroke-miterlimit="10" stroke-linecap="square"/>
<path d="M983.645 274.625C934.709 305.704 856.744 305.24 816.576 275.275C745.127 221.096 668.584 275.831 668.584 275.831C668.584 275.831 584.101 326.113 507.439 276.388" stroke="#404040" stroke-width="21.328" stroke-miterlimit="10" stroke-linecap="square"/>
<path d="M983.526 245.68C934.59 276.759 856.625 276.295 816.457 246.33C745.009 192.151 668.465 246.886 668.465 246.886C668.465 246.886 583.983 297.168 507.32 247.443" stroke="#404040" stroke-width="21.328" stroke-miterlimit="10" stroke-linecap="square"/>
<path d="M983.408 216.829C934.472 247.907 856.506 247.443 816.339 217.478C744.89 163.207 668.346 217.942 668.346 217.942C668.346 217.942 583.864 268.224 507.202 218.499" stroke="#404040" stroke-width="21.328" stroke-miterlimit="10" stroke-linecap="square"/>
<path d="M1973 34.7194C2021.94 3.64107 2099.9 4.10493 2140.07 34.07C2211.52 88.2484 2288.06 33.5134 2288.06 33.5134C2288.06 33.5134 2372.54 -16.7686 2449.21 32.9568" stroke="#404040" stroke-width="21.328" stroke-miterlimit="10" stroke-linecap="square"/>
<path d="M1973.12 63.6637C2022.05 32.5854 2100.02 33.0493 2140.19 63.0144C2211.64 117.193 2288.18 62.4577 2288.18 62.4577C2288.18 62.4577 2372.66 12.1757 2449.32 61.9011" stroke="#404040" stroke-width="21.328" stroke-miterlimit="10" stroke-linecap="square"/>
<path d="M1973.24 92.6086C2022.17 61.5302 2100.14 61.9941 2140.31 91.9592C2211.75 146.138 2288.3 91.4025 2288.3 91.4025C2288.3 91.4025 2372.78 41.1206 2449.44 90.8459" stroke="#404040" stroke-width="21.328" stroke-miterlimit="10" stroke-linecap="square"/>
<path d="M1973.36 121.553C2022.29 90.4751 2100.26 90.9389 2140.42 120.904C2211.87 175.082 2288.42 120.347 2288.42 120.347C2288.42 120.347 2372.9 70.0654 2449.56 119.791" stroke="#404040" stroke-width="21.328" stroke-miterlimit="10" stroke-linecap="square"/>
<path d="M1973.47 150.405C2022.41 119.327 2100.38 119.79 2140.54 149.756C2211.87 204.027 2288.54 149.292 2288.54 149.292C2288.54 149.292 2373.02 99.0097 2449.68 148.735" stroke="#404040" stroke-width="21.328" stroke-miterlimit="10" stroke-linecap="square"/>
<path d="M1973.59 179.35C2022.53 148.271 2100.49 148.735 2140.66 178.7C2212.11 232.879 2288.65 178.144 2288.65 178.144C2288.65 178.144 2373.14 127.862 2449.8 177.587" stroke="#404040" stroke-width="21.328" stroke-miterlimit="10" stroke-linecap="square"/>
<path d="M2942 186.029C2893.06 217.107 2815.1 216.643 2774.93 186.678C2703.48 132.5 2626.94 187.235 2626.94 187.235C2626.94 187.235 2542.46 237.517 2465.79 187.791" stroke="#404040" stroke-width="21.328" stroke-miterlimit="10" stroke-linecap="square"/>
<path d="M2941.88 157.178C2892.95 188.256 2814.98 187.792 2774.81 157.827C2703.36 103.649 2626.82 158.384 2626.82 158.384C2626.82 158.384 2542.34 208.666 2465.68 158.94" stroke="#404040" stroke-width="21.328" stroke-miterlimit="10" stroke-linecap="square"/>
<path d="M2941.76 128.233C2892.83 159.312 2814.86 158.848 2774.69 128.883C2703.25 74.7042 2626.7 129.439 2626.7 129.439C2626.7 129.439 2542.22 179.721 2465.56 129.996" stroke="#404040" stroke-width="21.328" stroke-miterlimit="10" stroke-linecap="square"/>
<path d="M2941.64 99.2879C2892.71 130.366 2814.74 129.902 2774.58 99.9373C2703.13 45.7589 2626.58 100.494 2626.58 100.494C2626.58 100.494 2542.1 150.776 2465.44 101.051" stroke="#404040" stroke-width="21.328" stroke-miterlimit="10" stroke-linecap="square"/>
<path d="M2941.53 70.3435C2892.59 101.422 2814.62 100.958 2774.46 70.9929C2703.01 16.8146 2626.46 71.5496 2626.46 71.5496C2626.46 71.5496 2541.98 121.832 2465.32 72.1062" stroke="#404040" stroke-width="21.328" stroke-miterlimit="10" stroke-linecap="square"/>
<path d="M2941.41 41.4916C2892.47 72.5699 2814.51 72.1061 2774.34 42.141C2702.89 -12.1302 2626.35 42.6048 2626.35 42.6048C2626.35 42.6048 2541.86 92.8868 2465.2 43.1615" stroke="#404040" stroke-width="21.328" stroke-miterlimit="10" stroke-linecap="square"/>
<path d="M1973 210.057C2021.94 178.978 2099.9 179.442 2140.07 209.407C2211.52 263.586 2288.06 208.851 2288.06 208.851C2288.06 208.851 2372.54 158.569 2449.21 208.294" stroke="#404040" stroke-width="21.328" stroke-miterlimit="10" stroke-linecap="square"/>
<path d="M1973.12 239.002C2022.05 207.923 2100.02 208.387 2140.19 238.352C2211.64 292.531 2288.18 237.796 2288.18 237.796C2288.18 237.796 2372.66 187.514 2449.32 237.239" stroke="#404040" stroke-width="21.328" stroke-miterlimit="10" stroke-linecap="square"/>
<path d="M1973.24 267.946C2022.17 236.868 2100.14 237.331 2140.31 267.297C2211.75 321.475 2288.3 266.74 2288.3 266.74C2288.3 266.74 2372.78 216.458 2449.44 266.183" stroke="#404040" stroke-width="21.328" stroke-miterlimit="10" stroke-linecap="square"/>
<path d="M1973.36 296.891C2022.29 265.812 2100.26 266.276 2140.42 296.241C2211.87 350.42 2288.42 295.685 2288.42 295.685C2288.42 295.685 2372.9 245.403 2449.56 295.128" stroke="#404040" stroke-width="21.328" stroke-miterlimit="10" stroke-linecap="square"/>
<path d="M1973.47 325.742C2022.41 294.664 2100.38 295.128 2140.54 325.093C2211.87 379.364 2288.54 324.629 2288.54 324.629C2288.54 324.629 2373.02 274.347 2449.68 324.072" stroke="#404040" stroke-width="21.328" stroke-miterlimit="10" stroke-linecap="square"/>
<path d="M1973.59 354.687C2022.53 323.609 2100.49 324.073 2140.66 354.038C2212.11 408.216 2288.65 353.481 2288.65 353.481C2288.65 353.481 2373.14 303.199 2449.8 352.925" stroke="#404040" stroke-width="21.328" stroke-miterlimit="10" stroke-linecap="square"/>
<path d="M2942 361.366C2893.06 392.445 2815.1 391.981 2774.93 362.016C2703.48 307.838 2626.94 362.573 2626.94 362.573C2626.94 362.573 2542.46 412.854 2465.79 363.129" stroke="#404040" stroke-width="21.328" stroke-miterlimit="10" stroke-linecap="square"/>
<path d="M2941.88 332.514C2892.95 363.593 2814.98 363.129 2774.81 333.164C2703.36 278.985 2626.82 333.72 2626.82 333.72C2626.82 333.72 2542.34 384.002 2465.68 334.277" stroke="#404040" stroke-width="21.328" stroke-miterlimit="10" stroke-linecap="square"/>
<path d="M2941.76 303.57C2892.83 334.648 2814.86 334.185 2774.69 304.219C2703.25 250.041 2626.7 304.776 2626.7 304.776C2626.7 304.776 2542.22 355.058 2465.56 305.333" stroke="#404040" stroke-width="21.328" stroke-miterlimit="10" stroke-linecap="square"/>
<path d="M2941.64 274.625C2892.71 305.704 2814.74 305.24 2774.58 275.275C2703.13 221.096 2626.58 275.831 2626.58 275.831C2626.58 275.831 2542.1 326.113 2465.44 276.388" stroke="#404040" stroke-width="21.328" stroke-miterlimit="10" stroke-linecap="square"/>
<path d="M2941.53 245.68C2892.59 276.759 2814.62 276.295 2774.46 246.33C2703.01 192.151 2626.46 246.886 2626.46 246.886C2626.46 246.886 2541.98 297.168 2465.32 247.443" stroke="#404040" stroke-width="21.328" stroke-miterlimit="10" stroke-linecap="square"/>
<path d="M2941.41 216.829C2892.47 247.907 2814.51 247.443 2774.34 217.478C2702.89 163.207 2626.35 217.942 2626.35 217.942C2626.35 217.942 2541.86 268.224 2465.2 218.499" stroke="#404040" stroke-width="21.328" stroke-miterlimit="10" stroke-linecap="square"/>
</svg>
