<svg width="396" height="2957" viewBox="0 0 396 2957" fill="none" xmlns="http://www.w3.org/2000/svg">
<path d="M361.366 994C392.445 1042.94 391.981 1120.9 362.016 1161.07C307.837 1232.52 362.572 1309.06 362.572 1309.06C362.572 1309.06 412.854 1393.54 363.129 1470.21" stroke="#404040" stroke-width="21.328" stroke-miterlimit="10" stroke-linecap="square"/>
<path d="M332.422 994.119C363.5 1043.05 363.036 1121.02 333.071 1161.19C278.893 1232.64 333.628 1309.18 333.628 1309.18C333.628 1309.18 383.91 1393.66 334.185 1470.32" stroke="#404040" stroke-width="21.328" stroke-miterlimit="10" stroke-linecap="square"/>
<path d="M303.477 994.237C334.556 1043.17 334.092 1121.14 304.127 1161.31C249.948 1232.75 304.683 1309.3 304.683 1309.3C304.683 1309.3 354.965 1393.78 305.24 1470.44" stroke="#404040" stroke-width="21.328" stroke-miterlimit="10" stroke-linecap="square"/>
<path d="M274.533 994.355C305.611 1043.29 305.147 1121.26 275.182 1161.42C221.004 1232.87 275.739 1309.42 275.739 1309.42C275.739 1309.42 326.021 1393.9 276.295 1470.56" stroke="#404040" stroke-width="21.328" stroke-miterlimit="10" stroke-linecap="square"/>
<path d="M245.681 994.474C276.759 1043.41 276.295 1121.37 246.33 1161.54C192.059 1232.87 246.794 1309.53 246.794 1309.53C246.794 1309.53 297.076 1394.02 247.351 1470.68" stroke="#404040" stroke-width="21.328" stroke-miterlimit="10" stroke-linecap="square"/>
<path d="M216.736 994.592C247.815 1043.53 247.351 1121.49 217.386 1161.66C163.207 1233.11 217.942 1309.65 217.942 1309.65C217.942 1309.65 268.224 1394.14 218.499 1470.8" stroke="#404040" stroke-width="21.328" stroke-miterlimit="10" stroke-linecap="square"/>
<path d="M210.057 1963C178.979 1914.06 179.443 1836.1 209.408 1795.93C263.586 1724.48 208.851 1647.94 208.851 1647.94C208.851 1647.94 158.569 1563.46 208.294 1486.79" stroke="#404040" stroke-width="21.328" stroke-miterlimit="10" stroke-linecap="square"/>
<path d="M238.909 1962.88C207.83 1913.95 208.294 1835.98 238.259 1795.81C292.437 1724.36 237.703 1647.82 237.703 1647.82C237.703 1647.82 187.421 1563.34 237.146 1486.68" stroke="#404040" stroke-width="21.328" stroke-miterlimit="10" stroke-linecap="square"/>
<path d="M267.853 1962.76C236.775 1913.83 237.238 1835.86 267.203 1795.69C321.382 1724.25 266.647 1647.7 266.647 1647.7C266.647 1647.7 216.365 1563.22 266.09 1486.56" stroke="#404040" stroke-width="21.328" stroke-miterlimit="10" stroke-linecap="square"/>
<path d="M296.798 1962.64C265.72 1913.71 266.183 1835.74 296.148 1795.58C350.327 1724.13 295.592 1647.58 295.592 1647.58C295.592 1647.58 245.31 1563.1 295.035 1486.44" stroke="#404040" stroke-width="21.328" stroke-miterlimit="10" stroke-linecap="square"/>
<path d="M325.742 1962.53C294.664 1913.59 295.128 1835.62 325.093 1795.46C379.271 1724.01 324.536 1647.46 324.536 1647.46C324.536 1647.46 274.254 1562.98 323.98 1486.32" stroke="#404040" stroke-width="21.328" stroke-miterlimit="10" stroke-linecap="square"/>
<path d="M354.594 1962.41C323.516 1913.47 323.98 1835.51 353.945 1795.34C408.216 1723.89 353.481 1647.35 353.481 1647.35C353.481 1647.35 303.199 1562.86 352.924 1486.2" stroke="#404040" stroke-width="21.328" stroke-miterlimit="10" stroke-linecap="square"/>
<path d="M186.029 994C217.107 1042.94 216.643 1120.9 186.678 1161.07C132.5 1232.52 187.235 1309.06 187.235 1309.06C187.235 1309.06 237.517 1393.54 187.792 1470.21" stroke="#404040" stroke-width="21.328" stroke-miterlimit="10" stroke-linecap="square"/>
<path d="M157.084 994.119C188.162 1043.05 187.698 1121.02 157.733 1161.19C103.555 1232.64 158.29 1309.18 158.29 1309.18C158.29 1309.18 208.572 1393.66 158.847 1470.32" stroke="#404040" stroke-width="21.328" stroke-miterlimit="10" stroke-linecap="square"/>
<path d="M128.14 994.237C159.218 1043.17 158.754 1121.14 128.789 1161.31C74.6107 1232.75 129.346 1309.3 129.346 1309.3C129.346 1309.3 179.628 1393.78 129.902 1470.44" stroke="#404040" stroke-width="21.328" stroke-miterlimit="10" stroke-linecap="square"/>
<path d="M99.1949 994.355C130.273 1043.29 129.809 1121.26 99.8443 1161.42C45.6659 1232.87 100.401 1309.42 100.401 1309.42C100.401 1309.42 150.683 1393.9 100.958 1470.56" stroke="#404040" stroke-width="21.328" stroke-miterlimit="10" stroke-linecap="square"/>
<path d="M70.3433 994.474C101.422 1043.41 100.958 1121.37 70.9927 1161.54C16.7216 1232.87 71.4566 1309.53 71.4566 1309.53C71.4566 1309.53 121.739 1394.02 72.0132 1470.68" stroke="#404040" stroke-width="21.328" stroke-miterlimit="10" stroke-linecap="square"/>
<path d="M41.3986 994.592C72.477 1043.53 72.0131 1121.49 42.048 1161.66C-12.1304 1233.11 42.6046 1309.65 42.6046 1309.65C42.6046 1309.65 92.8866 1394.14 43.1613 1470.8" stroke="#404040" stroke-width="21.328" stroke-miterlimit="10" stroke-linecap="square"/>
<path d="M34.7195 1963C3.64114 1914.06 4.10501 1836.1 34.0701 1795.93C88.2485 1724.48 33.5135 1647.94 33.5135 1647.94C33.5135 1647.94 -16.7685 1563.46 32.9569 1486.79" stroke="#404040" stroke-width="21.328" stroke-miterlimit="10" stroke-linecap="square"/>
<path d="M63.5714 1962.88C32.4931 1913.95 32.9569 1835.98 62.922 1795.81C117.1 1724.36 62.3654 1647.82 62.3654 1647.82C62.3654 1647.82 12.0834 1563.34 61.8088 1486.68" stroke="#404040" stroke-width="21.328" stroke-miterlimit="10" stroke-linecap="square"/>
<path d="M92.5158 1962.76C61.4374 1913.83 61.9013 1835.86 91.8664 1795.69C146.045 1724.25 91.3097 1647.7 91.3097 1647.7C91.3097 1647.7 41.0278 1563.22 90.7531 1486.56" stroke="#404040" stroke-width="21.328" stroke-miterlimit="10" stroke-linecap="square"/>
<path d="M121.461 1962.64C90.3822 1913.71 90.846 1835.74 120.811 1795.58C174.99 1724.13 120.255 1647.58 120.255 1647.58C120.255 1647.58 69.9725 1563.1 119.698 1486.44" stroke="#404040" stroke-width="21.328" stroke-miterlimit="10" stroke-linecap="square"/>
<path d="M150.405 1962.53C119.327 1913.59 119.791 1835.62 149.756 1795.46C203.934 1724.01 149.199 1647.46 149.199 1647.46C149.199 1647.46 98.9173 1562.98 148.643 1486.32" stroke="#404040" stroke-width="21.328" stroke-miterlimit="10" stroke-linecap="square"/>
<path d="M179.257 1962.41C148.178 1913.47 148.642 1835.51 178.607 1795.34C232.879 1723.89 178.144 1647.35 178.144 1647.35C178.144 1647.35 127.862 1562.86 177.587 1486.2" stroke="#404040" stroke-width="21.328" stroke-miterlimit="10" stroke-linecap="square"/>
<path d="M361.367 15C392.445 63.9358 391.981 141.901 362.016 182.069C307.838 253.518 362.573 330.061 362.573 330.061C362.573 330.061 412.855 414.544 363.129 491.206" stroke="#404040" stroke-width="21.328" stroke-miterlimit="10" stroke-linecap="square"/>
<path d="M332.422 15.1187C363.5 64.0545 363.036 142.02 333.071 182.188C278.893 253.636 333.628 330.18 333.628 330.18C333.628 330.18 383.91 414.662 334.185 491.325" stroke="#404040" stroke-width="21.328" stroke-miterlimit="10" stroke-linecap="square"/>
<path d="M303.477 15.2373C334.556 64.1731 334.092 142.139 304.127 182.306C249.948 253.755 304.683 330.299 304.683 330.299C304.683 330.299 354.965 414.781 305.24 491.443" stroke="#404040" stroke-width="21.328" stroke-miterlimit="10" stroke-linecap="square"/>
<path d="M274.533 15.3552C305.611 64.291 305.147 142.257 275.182 182.424C221.004 253.873 275.739 330.417 275.739 330.417C275.739 330.417 326.021 414.899 276.295 491.561" stroke="#404040" stroke-width="21.328" stroke-miterlimit="10" stroke-linecap="square"/>
<path d="M245.681 15.4739C276.759 64.4097 276.296 142.375 246.33 182.543C192.059 253.873 246.794 330.535 246.794 330.535C246.794 330.535 297.076 415.018 247.351 491.68" stroke="#404040" stroke-width="21.328" stroke-miterlimit="10" stroke-linecap="square"/>
<path d="M216.736 15.5925C247.815 64.5283 247.351 142.494 217.386 182.662C163.207 254.11 217.942 330.654 217.942 330.654C217.942 330.654 268.224 415.136 218.499 491.798" stroke="#404040" stroke-width="21.328" stroke-miterlimit="10" stroke-linecap="square"/>
<path d="M210.057 984C178.979 935.064 179.443 857.098 209.408 816.931C263.586 745.482 208.851 668.939 208.851 668.939C208.851 668.939 158.569 584.456 208.294 507.794" stroke="#404040" stroke-width="21.328" stroke-miterlimit="10" stroke-linecap="square"/>
<path d="M238.909 983.882C207.83 934.946 208.294 856.98 238.259 816.813C292.438 745.364 237.703 668.82 237.703 668.82C237.703 668.82 187.421 584.338 237.146 507.676" stroke="#404040" stroke-width="21.328" stroke-miterlimit="10" stroke-linecap="square"/>
<path d="M267.853 983.763C236.775 934.827 237.238 856.862 267.204 816.694C321.382 745.245 266.647 668.702 266.647 668.702C266.647 668.702 216.365 584.219 266.09 507.557" stroke="#404040" stroke-width="21.328" stroke-miterlimit="10" stroke-linecap="square"/>
<path d="M296.798 983.645C265.72 934.709 266.183 856.743 296.149 816.576C350.327 745.127 295.592 668.584 295.592 668.584C295.592 668.584 245.31 584.101 295.035 507.439" stroke="#404040" stroke-width="21.328" stroke-miterlimit="10" stroke-linecap="square"/>
<path d="M325.742 983.526C294.664 934.59 295.128 856.625 325.093 816.457C379.271 745.009 324.536 668.465 324.536 668.465C324.536 668.465 274.254 583.982 323.98 507.32" stroke="#404040" stroke-width="21.328" stroke-miterlimit="10" stroke-linecap="square"/>
<path d="M354.594 983.407C323.516 934.472 323.98 856.506 353.945 816.338C408.216 744.89 353.481 668.346 353.481 668.346C353.481 668.346 303.199 583.864 352.924 507.202" stroke="#404040" stroke-width="21.328" stroke-miterlimit="10" stroke-linecap="square"/>
<path d="M186.029 15C217.107 63.9358 216.643 141.901 186.678 182.069C132.5 253.518 187.235 330.061 187.235 330.061C187.235 330.061 237.517 414.544 187.792 491.206" stroke="#404040" stroke-width="21.328" stroke-miterlimit="10" stroke-linecap="square"/>
<path d="M157.084 15.1187C188.162 64.0545 187.699 142.02 157.733 182.188C103.555 253.636 158.29 330.18 158.29 330.18C158.29 330.18 208.572 414.662 158.847 491.325" stroke="#404040" stroke-width="21.328" stroke-miterlimit="10" stroke-linecap="square"/>
<path d="M128.14 15.2373C159.218 64.1731 158.754 142.139 128.789 182.306C74.6107 253.755 129.346 330.299 129.346 330.299C129.346 330.299 179.628 414.781 129.902 491.443" stroke="#404040" stroke-width="21.328" stroke-miterlimit="10" stroke-linecap="square"/>
<path d="M99.1949 15.3552C130.273 64.291 129.809 142.257 99.8443 182.424C45.666 253.873 100.401 330.417 100.401 330.417C100.401 330.417 150.683 414.899 100.958 491.561" stroke="#404040" stroke-width="21.328" stroke-miterlimit="10" stroke-linecap="square"/>
<path d="M70.3434 15.4739C101.422 64.4097 100.958 142.375 70.9928 182.543C16.7216 253.873 71.4566 330.535 71.4566 330.535C71.4566 330.535 121.739 415.018 72.0132 491.68" stroke="#404040" stroke-width="21.328" stroke-miterlimit="10" stroke-linecap="square"/>
<path d="M41.3987 15.5925C72.477 64.5283 72.0132 142.494 42.0481 182.662C-12.1303 254.11 42.6047 330.654 42.6047 330.654C42.6047 330.654 92.8867 415.136 43.1613 491.798" stroke="#404040" stroke-width="21.328" stroke-miterlimit="10" stroke-linecap="square"/>
<path d="M34.7195 984C3.6412 935.064 4.10507 857.098 34.0702 816.931C88.2485 745.482 33.5135 668.939 33.5135 668.939C33.5135 668.939 -16.7684 584.456 32.9569 507.794" stroke="#404040" stroke-width="21.328" stroke-miterlimit="10" stroke-linecap="square"/>
<path d="M63.5715 983.882C32.4931 934.946 32.957 856.98 62.9221 816.813C117.1 745.364 62.3655 668.82 62.3655 668.82C62.3655 668.82 12.0835 584.338 61.8089 507.676" stroke="#404040" stroke-width="21.328" stroke-miterlimit="10" stroke-linecap="square"/>
<path d="M92.5158 983.763C61.4375 934.827 61.9013 856.862 91.8664 816.694C146.045 745.245 91.3098 668.702 91.3098 668.702C91.3098 668.702 41.0278 584.219 90.7532 507.557" stroke="#404040" stroke-width="21.328" stroke-miterlimit="10" stroke-linecap="square"/>
<path d="M121.461 983.645C90.3822 934.709 90.8461 856.743 120.811 816.576C174.99 745.127 120.255 668.584 120.255 668.584C120.255 668.584 69.9726 584.101 119.698 507.439" stroke="#404040" stroke-width="21.328" stroke-miterlimit="10" stroke-linecap="square"/>
<path d="M150.405 983.526C119.327 934.59 119.791 856.625 149.756 816.457C203.934 745.009 149.199 668.465 149.199 668.465C149.199 668.465 98.9174 583.982 148.643 507.32" stroke="#404040" stroke-width="21.328" stroke-miterlimit="10" stroke-linecap="square"/>
<path d="M179.257 983.407C148.179 934.472 148.642 856.506 178.607 816.338C232.879 744.89 178.144 668.346 178.144 668.346C178.144 668.346 127.862 583.864 177.587 507.202" stroke="#404040" stroke-width="21.328" stroke-miterlimit="10" stroke-linecap="square"/>
<path d="M361.366 1973C392.445 2021.94 391.981 2099.9 362.016 2140.07C307.837 2211.52 362.572 2288.06 362.572 2288.06C362.572 2288.06 412.854 2372.54 363.129 2449.21" stroke="#404040" stroke-width="21.328" stroke-miterlimit="10" stroke-linecap="square"/>
<path d="M332.422 1973.12C363.5 2022.05 363.036 2100.02 333.071 2140.19C278.893 2211.64 333.628 2288.18 333.628 2288.18C333.628 2288.18 383.91 2372.66 334.185 2449.32" stroke="#404040" stroke-width="21.328" stroke-miterlimit="10" stroke-linecap="square"/>
<path d="M303.477 1973.24C334.556 2022.17 334.092 2100.14 304.127 2140.31C249.948 2211.75 304.683 2288.3 304.683 2288.3C304.683 2288.3 354.965 2372.78 305.24 2449.44" stroke="#404040" stroke-width="21.328" stroke-miterlimit="10" stroke-linecap="square"/>
<path d="M274.533 1973.36C305.611 2022.29 305.147 2100.26 275.182 2140.42C221.004 2211.87 275.739 2288.42 275.739 2288.42C275.739 2288.42 326.021 2372.9 276.295 2449.56" stroke="#404040" stroke-width="21.328" stroke-miterlimit="10" stroke-linecap="square"/>
<path d="M245.681 1973.47C276.759 2022.41 276.295 2100.37 246.33 2140.54C192.059 2211.87 246.794 2288.53 246.794 2288.53C246.794 2288.53 297.076 2373.02 247.351 2449.68" stroke="#404040" stroke-width="21.328" stroke-miterlimit="10" stroke-linecap="square"/>
<path d="M216.736 1973.59C247.815 2022.53 247.351 2100.49 217.386 2140.66C163.207 2212.11 217.942 2288.65 217.942 2288.65C217.942 2288.65 268.224 2373.14 218.499 2449.8" stroke="#404040" stroke-width="21.328" stroke-miterlimit="10" stroke-linecap="square"/>
<path d="M210.057 2942C178.979 2893.06 179.443 2815.1 209.408 2774.93C263.586 2703.48 208.851 2626.94 208.851 2626.94C208.851 2626.94 158.569 2542.46 208.294 2465.79" stroke="#404040" stroke-width="21.328" stroke-miterlimit="10" stroke-linecap="square"/>
<path d="M238.909 2941.88C207.83 2892.95 208.294 2814.98 238.259 2774.81C292.437 2703.36 237.703 2626.82 237.703 2626.82C237.703 2626.82 187.421 2542.34 237.146 2465.68" stroke="#404040" stroke-width="21.328" stroke-miterlimit="10" stroke-linecap="square"/>
<path d="M267.853 2941.76C236.775 2892.83 237.238 2814.86 267.203 2774.69C321.382 2703.25 266.647 2626.7 266.647 2626.7C266.647 2626.7 216.365 2542.22 266.09 2465.56" stroke="#404040" stroke-width="21.328" stroke-miterlimit="10" stroke-linecap="square"/>
<path d="M296.798 2941.64C265.72 2892.71 266.183 2814.74 296.148 2774.58C350.327 2703.13 295.592 2626.58 295.592 2626.58C295.592 2626.58 245.31 2542.1 295.035 2465.44" stroke="#404040" stroke-width="21.328" stroke-miterlimit="10" stroke-linecap="square"/>
<path d="M325.742 2941.53C294.664 2892.59 295.128 2814.62 325.093 2774.46C379.271 2703.01 324.536 2626.46 324.536 2626.46C324.536 2626.46 274.254 2541.98 323.98 2465.32" stroke="#404040" stroke-width="21.328" stroke-miterlimit="10" stroke-linecap="square"/>
<path d="M354.594 2941.41C323.516 2892.47 323.98 2814.51 353.945 2774.34C408.216 2702.89 353.481 2626.35 353.481 2626.35C353.481 2626.35 303.199 2541.86 352.924 2465.2" stroke="#404040" stroke-width="21.328" stroke-miterlimit="10" stroke-linecap="square"/>
<path d="M186.029 1973C217.107 2021.94 216.643 2099.9 186.678 2140.07C132.5 2211.52 187.235 2288.06 187.235 2288.06C187.235 2288.06 237.517 2372.54 187.792 2449.21" stroke="#404040" stroke-width="21.328" stroke-miterlimit="10" stroke-linecap="square"/>
<path d="M157.084 1973.12C188.162 2022.05 187.698 2100.02 157.733 2140.19C103.555 2211.64 158.29 2288.18 158.29 2288.18C158.29 2288.18 208.572 2372.66 158.847 2449.32" stroke="#404040" stroke-width="21.328" stroke-miterlimit="10" stroke-linecap="square"/>
<path d="M128.14 1973.24C159.218 2022.17 158.754 2100.14 128.789 2140.31C74.6107 2211.75 129.346 2288.3 129.346 2288.3C129.346 2288.3 179.628 2372.78 129.902 2449.44" stroke="#404040" stroke-width="21.328" stroke-miterlimit="10" stroke-linecap="square"/>
<path d="M99.1949 1973.36C130.273 2022.29 129.809 2100.26 99.8443 2140.42C45.6659 2211.87 100.401 2288.42 100.401 2288.42C100.401 2288.42 150.683 2372.9 100.958 2449.56" stroke="#404040" stroke-width="21.328" stroke-miterlimit="10" stroke-linecap="square"/>
<path d="M70.3433 1973.47C101.422 2022.41 100.958 2100.37 70.9927 2140.54C16.7216 2211.87 71.4566 2288.53 71.4566 2288.53C71.4566 2288.53 121.739 2373.02 72.0132 2449.68" stroke="#404040" stroke-width="21.328" stroke-miterlimit="10" stroke-linecap="square"/>
<path d="M41.3986 1973.59C72.477 2022.53 72.0131 2100.49 42.048 2140.66C-12.1304 2212.11 42.6046 2288.65 42.6046 2288.65C42.6046 2288.65 92.8866 2373.14 43.1613 2449.8" stroke="#404040" stroke-width="21.328" stroke-miterlimit="10" stroke-linecap="square"/>
<path d="M34.7195 2942C3.64114 2893.06 4.10501 2815.1 34.0701 2774.93C88.2485 2703.48 33.5135 2626.94 33.5135 2626.94C33.5135 2626.94 -16.7685 2542.46 32.9569 2465.79" stroke="#404040" stroke-width="21.328" stroke-miterlimit="10" stroke-linecap="square"/>
<path d="M63.5714 2941.88C32.4931 2892.95 32.9569 2814.98 62.922 2774.81C117.1 2703.36 62.3654 2626.82 62.3654 2626.82C62.3654 2626.82 12.0834 2542.34 61.8088 2465.68" stroke="#404040" stroke-width="21.328" stroke-miterlimit="10" stroke-linecap="square"/>
<path d="M92.5158 2941.76C61.4374 2892.83 61.9013 2814.86 91.8664 2774.69C146.045 2703.25 91.3097 2626.7 91.3097 2626.7C91.3097 2626.7 41.0278 2542.22 90.7531 2465.56" stroke="#404040" stroke-width="21.328" stroke-miterlimit="10" stroke-linecap="square"/>
<path d="M121.461 2941.64C90.3822 2892.71 90.846 2814.74 120.811 2774.58C174.99 2703.13 120.255 2626.58 120.255 2626.58C120.255 2626.58 69.9725 2542.1 119.698 2465.44" stroke="#404040" stroke-width="21.328" stroke-miterlimit="10" stroke-linecap="square"/>
<path d="M150.405 2941.53C119.327 2892.59 119.791 2814.62 149.756 2774.46C203.934 2703.01 149.199 2626.46 149.199 2626.46C149.199 2626.46 98.9173 2541.98 148.643 2465.32" stroke="#404040" stroke-width="21.328" stroke-miterlimit="10" stroke-linecap="square"/>
<path d="M179.257 2941.41C148.178 2892.47 148.642 2814.51 178.607 2774.34C232.879 2702.89 178.144 2626.35 178.144 2626.35C178.144 2626.35 127.862 2541.86 177.587 2465.2" stroke="#404040" stroke-width="21.328" stroke-miterlimit="10" stroke-linecap="square"/>
</svg>
