<svg width="110" height="93" viewBox="0 0 110 93" fill="none" xmlns="http://www.w3.org/2000/svg">
<path d="M49.5 91C49.5 91.8284 50.1716 92.5 51 92.5C51.8284 92.5 52.5 91.8284 52.5 91L49.5 91ZM51 69C55.4183 69 59 65.4183 59 61C59 56.5817 55.4183 53 51 53C46.5817 53 43 56.5817 43 61C43 65.4183 46.5817 69 51 69ZM52.5 91L52.5 61L49.5 61L49.5 91L52.5 91Z" fill="#40F102"/>
<path d="M82.7578 16.3591C82.7051 16.8866 82.6259 17.4404 82.6259 17.9679C82.6259 28.4906 82.5996 39.0133 82.6523 49.536C82.6523 50.9074 82.2831 51.3294 80.9381 51.1975C79.6722 51.092 78.3799 51.1184 77.114 51.1975C76.1119 51.2503 75.8218 50.881 75.8218 49.9052C75.8482 45.6065 75.8218 41.3077 75.8218 37.009C75.8218 25.1676 75.8218 13.3526 75.7954 1.51126C75.7954 0.482727 76.0064 0.00801794 77.1668 0.0343907C79.9623 0.113509 82.7842 0.0871362 85.5797 0.0343907C86.45 0.00801794 86.7928 0.271745 86.9247 1.16842C88.6653 12.0604 90.4323 22.9523 92.2256 33.8442C92.3311 34.4772 92.5157 35.0838 92.6476 35.7167C92.7795 35.7167 92.885 35.7431 93.0168 35.7431C93.3069 34.2135 93.6234 32.6575 93.8344 31.1279C95.3112 21.3436 96.7617 11.5593 98.1859 1.74862C98.3705 0.429982 98.8452 -0.0711003 100.269 0.00801794C102.907 0.139882 105.544 0.0607634 108.155 0.0343907C108.972 0.0343907 109.342 0.219 109.342 1.11567C109.315 17.5195 109.342 33.897 109.315 50.3008C109.315 50.5118 109.262 50.7228 109.21 51.1184C107.021 51.1184 104.858 51.1448 102.669 51.0656C102.458 51.0656 102.142 50.3536 102.115 49.958C102.063 47.5053 102.089 45.0527 102.089 42.6C102.115 34.0025 102.115 25.4313 102.142 16.8338C102.142 16.491 102.089 16.1745 101.773 15.7525C101.588 16.3855 101.324 16.9921 101.245 17.625C99.6891 27.884 98.1859 38.1694 96.6035 48.402C96.1024 51.6722 96.7354 51.0656 93.4651 51.1184C92.2784 51.1448 91.0916 51.092 89.9048 51.1184C89.1664 51.1448 88.7972 50.9074 88.6653 50.1426C87.5313 43.1011 86.3709 36.0596 85.2105 29.018C84.6567 25.0885 83.9973 21.1062 83.338 17.1503C83.2853 16.8866 83.1534 16.6228 83.0479 16.3591C82.9424 16.3327 82.8369 16.3327 82.7578 16.3591Z" fill="#555356"/>
<path d="M8.2283 21.8712C8.8085 20.6845 9.44144 19.4977 9.99527 18.2845C12.6853 12.6408 15.3489 6.97064 17.9862 1.3005C18.4082 0.377458 18.9356 -0.0181331 19.9905 0.0346124C21.9421 0.113731 23.9201 0.0609851 26.1354 0.0609851C25.8453 0.799422 25.6607 1.35325 25.397 1.8807C22.1267 8.52663 18.8565 15.1462 15.639 21.8185C15.3489 22.3987 15.3489 23.2954 15.5863 23.9019C18.8301 32.2357 22.1267 40.5168 25.397 48.8242C25.6607 49.5099 25.898 50.1956 26.2409 51.1186C23.6827 51.1186 21.2828 51.1714 18.9093 51.0659C18.5664 51.0395 18.1181 50.3274 17.9335 49.8527C15.639 43.9716 13.3974 38.0905 11.1293 32.2094C10.9711 31.7874 10.7337 31.3654 10.3381 30.5742C9.28321 32.7104 7.77996 34.2137 7.75359 36.3762C7.70084 40.8069 7.70084 45.2375 7.75359 49.6417C7.77996 50.7494 7.51623 51.2241 6.30309 51.145C4.6416 51.0395 2.98012 51.0395 1.31864 51.145C0.0791183 51.2241 0 50.6175 0 49.6417C0.0263727 40.6486 0 31.6819 0 22.6888C0.0263727 15.6736 0.0527455 8.63213 0 1.56423C0 0.324713 0.369218 -0.0445058 1.55599 0.0346124C3.16473 0.113731 4.79984 0.113731 6.40858 0.0346124C7.48986 -0.0181331 7.75359 0.403831 7.72721 1.40599C7.70084 7.68271 7.70084 13.933 7.72721 20.2098C7.72721 20.7372 7.77996 21.2383 7.80633 21.7657C7.96457 21.7921 8.09643 21.8185 8.2283 21.8712Z" fill="#555356"/>
<path d="M64.5859 51.3588C62.1596 51.3588 59.8652 51.4116 57.5444 51.3061C57.2543 51.3061 56.8323 50.5677 56.7532 50.093C56.3312 47.7722 55.9884 45.425 55.6719 43.0778C55.5664 42.2339 55.1708 41.9438 54.3796 41.9438C51.716 41.9438 49.026 41.9438 46.3623 41.9438C45.5711 41.9438 45.2019 42.313 45.0964 43.1042C44.78 45.4514 44.3844 47.7722 44.0943 50.1193C43.9888 51.0424 43.6196 51.3852 42.6701 51.3588C40.8504 51.2797 39.0043 51.3325 37 51.3325C37.0264 50.7786 37 50.3567 37.0791 49.9611C38.9252 38.4626 40.7713 26.9641 42.6174 15.4655C43.3031 11.1404 43.9624 6.81529 44.6217 2.49016C44.9646 0.248477 44.9382 0.248477 47.2063 0.248477C49.8699 0.248477 52.5599 0.301222 55.2236 0.222104C56.2257 0.195731 56.6213 0.538577 56.7796 1.51437C58.0191 9.47894 59.3113 17.4171 60.5772 25.3817C61.8959 33.6364 63.1881 41.891 64.5068 50.1457C64.5331 50.5149 64.5331 50.8578 64.5859 51.3588ZM50.6611 9.92727C50.5028 9.92727 50.3446 9.92727 50.16 9.92727C50.0545 10.3229 49.949 10.7448 49.8963 11.1404C49.2106 15.5974 48.5249 20.028 47.8392 24.485C47.3645 27.6761 46.9162 30.8936 46.4414 34.0847C46.3623 34.6385 46.1777 35.3242 47.048 35.3506C49.4479 35.4033 51.8215 35.377 54.4324 35.377C53.1665 26.7267 51.927 18.3402 50.6611 9.92727Z" fill="#555356"/>
</svg>
